<svg version="1.1" width="3393" height="3383" xmlns="http://www.w3.org/2000/svg" xmlns:xlink="http://www.w3.org/1999/xlink" overflow="hidden"><path d=" M 0 0 C 21.6195 18.633 28.1104 45.5001 30.1992 72.9844 C 30.4397 77.6346 30.434 82.2751 30.3516 86.9297 C 31.059 87.1944 31.7665 87.459 32.4954 87.7317 C 35.4999 88.9919 38.2266 90.4735 41.0508 92.0977 C 42.7207 93.0549 42.7207 93.0549 44.4243 94.0315 C 45.6293 94.7266 46.8342 95.4219 48.0391 96.1172 C 49.2959 96.8394 50.5529 97.5613 51.8101 98.283 C 55.0379 100.137 58.2635 101.995 61.4881 103.855 C 64.3468 105.504 67.2067 107.15 70.0664 108.797 C 75.4243 111.884 80.7795 114.977 86.1338 118.071 C 91.5383 121.193 96.945 124.311 102.352 127.43 C 104.518 128.68 106.685 129.93 108.852 131.18 C 110.46 132.108 110.46 132.108 112.102 133.055 C 129.977 143.367 129.977 143.367 147.852 153.68 C 148.924 154.299 149.997 154.917 151.102 155.555 C 153.267 156.804 155.432 158.053 157.597 159.302 C 163.038 162.442 168.479 165.58 173.922 168.715 C 184.374 174.737 194.815 180.776 205.227 186.867 C 213.904 191.942 222.618 196.952 231.352 201.93 C 241.073 207.47 250.761 213.063 260.418 218.713 C 270.942 224.867 281.505 230.953 292.069 237.039 C 297.498 240.166 302.925 243.298 308.352 246.43 C 310.518 247.68 312.685 248.93 314.852 250.18 C 371.185 282.68 427.518 315.18 483.852 347.68 C 484.924 348.299 485.997 348.917 487.102 349.555 C 489.267 350.804 491.432 352.053 493.597 353.302 C 499.038 356.442 504.479 359.58 509.922 362.715 C 520.374 368.737 530.815 374.776 541.227 380.867 C 549.904 385.942 558.618 390.952 567.352 395.93 C 577.073 401.47 586.76 407.063 596.418 412.713 C 606.942 418.867 617.505 424.953 628.069 431.039 C 633.498 434.167 638.925 437.298 644.352 440.43 C 646.518 441.68 648.685 442.93 650.852 444.18 C 715.852 481.68 780.852 519.18 845.852 556.68 C 846.924 557.299 847.997 557.917 849.102 558.555 C 851.267 559.804 853.432 561.053 855.597 562.302 C 861.038 565.442 866.479 568.58 871.922 571.715 C 882.374 577.737 892.815 583.776 903.227 589.867 C 911.904 594.942 920.618 599.952 929.352 604.93 C 939.073 610.47 948.76 616.063 958.418 621.713 C 968.942 627.867 979.505 633.953 990.069 640.039 C 995.498 643.167 1000.92 646.298 1006.35 649.43 C 1008.52 650.68 1010.68 651.93 1012.85 653.18 C 1077.85 690.68 1142.85 728.18 1207.85 765.68 C 1208.92 766.299 1210 766.917 1211.1 767.555 C 1213.27 768.804 1215.43 770.053 1217.6 771.302 C 1223.04 774.442 1228.48 777.58 1233.92 780.715 C 1244.37 786.737 1254.81 792.776 1265.23 798.867 C 1273.9 803.942 1282.62 808.952 1291.35 813.93 C 1301.07 819.47 1310.76 825.063 1320.42 830.713 C 1330.94 836.867 1341.51 842.953 1352.07 849.039 C 1357.5 852.167 1362.92 855.298 1368.35 858.43 C 1370.52 859.68 1372.68 860.93 1374.85 862.18 C 1472.35 918.43 1472.35 918.43 1569.85 974.68 C 1570.92 975.299 1572 975.917 1573.1 976.555 C 1575.27 977.804 1577.43 979.053 1579.6 980.302 C 1585.04 983.442 1590.48 986.58 1595.92 989.715 C 1606.37 995.737 1616.81 1001.78 1627.23 1007.87 C 1635.9 1012.94 1644.62 1017.95 1653.35 1022.93 C 1663.07 1028.47 1672.76 1034.06 1682.42 1039.71 C 1692.94 1045.87 1703.51 1051.95 1714.07 1058.04 C 1719.5 1061.17 1724.92 1064.3 1730.35 1067.43 C 1732.52 1068.68 1734.68 1069.93 1736.85 1071.18 C 1834.35 1127.43 1834.35 1127.43 1931.85 1183.68 C 1932.93 1184.3 1934 1184.92 1935.11 1185.56 C 1937.26 1186.8 1939.41 1188.04 1941.56 1189.28 C 1946.59 1192.19 1951.62 1195.09 1956.66 1197.97 C 1958.44 1198.99 1960.21 1200.01 1961.98 1201.02 C 1964.2 1202.3 1966.42 1203.57 1968.64 1204.83 C 1970.64 1205.98 1972.64 1207.14 1974.62 1208.32 C 1976.33 1209.33 1978.06 1210.31 1979.81 1211.24 C 1987.06 1215.42 1990.49 1221.75 1994.54 1228.87 C 1995.28 1230.13 1996.02 1231.39 1996.76 1232.65 C 1998.26 1235.2 1999.76 1237.75 2001.24 1240.31 C 2004.2 1245.4 2007.28 1250.41 2010.35 1255.43 C 2011.49 1257.29 2012.62 1259.16 2013.76 1261.02 C 2014.34 1261.97 2014.91 1262.92 2015.51 1263.9 C 2018.96 1269.57 2022.41 1275.25 2025.85 1280.93 C 2032.78 1292.34 2039.71 1303.74 2046.65 1315.14 C 2050.14 1320.86 2053.62 1326.59 2057.11 1332.32 C 2059.99 1337.05 2062.87 1341.78 2065.75 1346.5 C 2072.49 1357.57 2079.22 1368.65 2085.94 1379.72 C 2092.5 1390.53 2099.07 1401.34 2105.65 1412.14 C 2109.14 1417.86 2112.62 1423.59 2116.11 1429.32 C 2118.99 1434.05 2121.87 1438.78 2124.75 1443.5 C 2131.49 1454.57 2138.22 1465.65 2144.94 1476.72 C 2151.5 1487.53 2158.07 1498.34 2164.65 1509.14 C 2168.14 1514.86 2171.62 1520.59 2175.11 1526.32 C 2177.99 1531.05 2180.87 1535.78 2183.75 1540.5 C 2184.89 1542.38 2186.02 1544.25 2187.16 1546.12 C 2187.73 1547.05 2188.3 1547.99 2188.89 1548.95 C 2192.12 1554.25 2195.34 1559.56 2198.55 1564.86 C 2200.01 1567.26 2201.46 1569.66 2202.91 1572.05 C 2203.28 1572.65 2203.64 1573.25 2204.01 1573.86 C 2208.62 1581.47 2213.28 1589.06 2217.98 1596.62 C 2223.31 1605.19 2228.51 1613.83 2233.69 1622.49 C 2239.62 1632.39 2245.62 1642.25 2251.63 1652.1 C 2253.35 1654.92 2255.06 1657.74 2256.78 1660.57 C 2257.35 1661.5 2257.92 1662.44 2258.5 1663.4 C 2259.65 1665.29 2260.79 1667.17 2261.93 1669.05 C 2264.81 1673.79 2267.71 1678.51 2270.65 1683.2 C 2272.15 1685.59 2273.64 1687.98 2275.13 1690.37 C 2275.86 1691.53 2276.58 1692.68 2277.31 1693.83 C 2278.33 1695.44 2279.34 1697.05 2280.34 1698.66 C 2280.93 1699.58 2281.51 1700.5 2282.1 1701.45 C 2283.35 1703.93 2283.35 1703.93 2283.35 1707.93 C 2268.57 1708 2253.8 1707.8 2239.02 1707.44 C 2236.74 1707.38 2234.46 1707.33 2232.18 1707.28 C 2225.98 1707.13 2219.78 1706.98 2213.58 1706.83 C 2209.6 1706.74 2205.63 1706.64 2201.66 1706.55 C 2200.99 1706.53 2200.31 1706.52 2199.62 1706.5 C 2198.95 1706.49 2198.27 1706.47 2197.58 1706.45 C 2147.89 1705.28 2098.2 1704.06 2048.51 1702.83 C 2041.14 1702.64 2033.76 1702.46 2026.39 1702.28 C 2025.57 1702.26 2024.76 1702.24 2023.92 1702.22 C 1997.46 1701.56 1971 1700.93 1944.54 1700.31 C 1917.3 1699.66 1890.06 1699 1862.82 1698.32 C 1858.97 1698.22 1855.12 1698.13 1851.28 1698.03 C 1850.52 1698.01 1849.76 1697.99 1848.98 1697.97 C 1836.81 1697.67 1824.64 1697.38 1812.47 1697.11 C 1800.25 1696.83 1788.02 1696.53 1775.8 1696.2 C 1769.18 1696.03 1762.56 1695.87 1755.94 1695.73 C 1749.88 1695.6 1743.82 1695.45 1737.76 1695.27 C 1735.56 1695.21 1733.37 1695.16 1731.18 1695.13 C 1710.56 1694.76 1710.56 1694.76 1701.35 1687.93 C 1700.23 1687.3 1699.1 1686.67 1697.95 1686.02 C 1697 1685.47 1696.05 1684.93 1695.07 1684.37 C 1693.97 1683.75 1692.88 1683.12 1691.75 1682.48 C 1690.61 1681.82 1689.47 1681.17 1688.29 1680.49 C 1687.06 1679.79 1685.83 1679.08 1684.6 1678.38 C 1673.24 1671.88 1661.9 1665.34 1650.57 1658.79 C 1645.16 1655.67 1639.76 1652.55 1634.35 1649.43 C 1632.18 1648.18 1630.02 1646.93 1627.85 1645.68 C 1626.78 1645.06 1625.71 1644.44 1624.6 1643.8 C 1621.35 1641.93 1618.1 1640.05 1614.85 1638.18 C 1613.78 1637.56 1612.71 1636.94 1611.6 1636.3 C 1609.44 1635.06 1607.27 1633.81 1605.11 1632.56 C 1599.67 1629.42 1594.22 1626.28 1588.78 1623.14 C 1578.33 1617.12 1567.89 1611.08 1557.48 1604.99 C 1548.8 1599.92 1540.09 1594.91 1531.35 1589.93 C 1521.63 1584.39 1511.94 1578.8 1502.28 1573.15 C 1491.76 1566.99 1481.2 1560.91 1470.63 1554.82 C 1465.2 1551.69 1459.78 1548.56 1454.35 1545.43 C 1452.18 1544.18 1450.02 1542.93 1447.85 1541.68 C 1382.85 1504.18 1317.85 1466.68 1252.85 1429.18 C 1251.78 1428.56 1250.71 1427.94 1249.6 1427.3 C 1247.44 1426.06 1245.27 1424.81 1243.11 1423.56 C 1237.67 1420.42 1232.22 1417.28 1226.78 1414.14 C 1216.33 1408.12 1205.89 1402.08 1195.48 1395.99 C 1186.8 1390.92 1178.09 1385.91 1169.35 1380.93 C 1159.63 1375.39 1149.94 1369.8 1140.28 1364.15 C 1129.76 1357.99 1119.2 1351.91 1108.63 1345.82 C 1103.2 1342.69 1097.78 1339.56 1092.35 1336.43 C 1090.18 1335.18 1088.02 1333.93 1085.85 1332.68 C 1020.85 1295.18 955.852 1257.68 890.852 1220.18 C 889.779 1219.56 888.706 1218.94 887.601 1218.3 C 885.436 1217.06 883.271 1215.81 881.106 1214.56 C 875.665 1211.42 870.224 1208.28 864.781 1205.14 C 854.33 1199.12 843.889 1193.08 833.477 1186.99 C 824.799 1181.92 816.086 1176.91 807.352 1171.93 C 797.63 1166.39 787.943 1160.8 778.285 1155.15 C 767.761 1148.99 757.198 1142.91 746.634 1136.82 C 741.205 1133.69 735.778 1130.56 730.352 1127.43 C 728.185 1126.18 726.018 1124.93 723.852 1123.68 C 658.852 1086.18 593.852 1048.68 528.852 1011.18 C 527.779 1010.56 526.706 1009.94 525.601 1009.3 C 523.436 1008.06 521.271 1006.81 519.106 1005.56 C 513.665 1002.42 508.224 999.28 502.781 996.145 C 492.329 990.122 481.889 984.083 471.477 977.992 C 462.799 972.917 454.086 967.907 445.352 962.93 C 435.63 957.39 425.943 951.796 416.285 946.146 C 405.761 939.992 395.198 933.906 384.634 927.821 C 379.205 924.693 373.778 921.561 368.352 918.43 C 366.185 917.18 364.018 915.93 361.852 914.68 C 296.852 877.18 231.852 839.68 166.852 802.18 C 165.779 801.561 164.706 800.942 163.601 800.304 C 161.436 799.055 159.271 797.806 157.106 796.557 C 151.665 793.418 146.224 790.28 140.781 787.145 C 130.329 781.122 119.889 775.083 109.477 768.992 C 100.799 763.917 92.0855 758.907 83.3516 753.93 C 73.6304 748.39 63.9426 742.796 54.2847 737.146 C 43.7607 730.992 33.1978 724.906 22.6338 718.821 C 17.205 715.693 11.7784 712.561 6.35156 709.43 C 4.18491 708.18 2.01824 706.93 -0.148438 705.68 C -56.4818 673.18 -112.815 640.68 -169.148 608.18 C -170.221 607.561 -171.294 606.942 -172.399 606.304 C -174.564 605.055 -176.729 603.806 -178.894 602.557 C -184.335 599.418 -189.776 596.28 -195.219 593.145 C -197.404 591.885 -199.589 590.626 -201.773 589.367 C -203.37 588.447 -203.37 588.447 -205 587.509 C -210.455 584.362 -215.902 581.201 -221.336 578.016 C -222.958 577.065 -222.958 577.065 -224.613 576.096 C -226.655 574.898 -228.696 573.698 -230.735 572.496 C -232.548 571.432 -234.37 570.383 -236.2 569.35 C -238.648 567.93 -238.648 567.93 -240.712 566.476 C -242.769 565.141 -244.228 564.352 -246.648 563.93 C -250.672 564.955 -254.094 566.863 -257.711 568.867 C -259.761 569.924 -261.815 570.975 -263.871 572.02 C -265.358 572.783 -265.358 572.783 -266.875 573.562 C -272.59 576.38 -278.497 578.279 -284.648 579.93 C -286.402 580.403 -286.402 580.403 -288.191 580.887 C -306.204 585.115 -325.792 584.731 -342.211 575.555 C -344.046 574.38 -345.861 573.175 -347.648 571.93 C -348.301 571.48 -348.953 571.03 -349.625 570.566 C -367.947 556.385 -374.742 530.746 -377.648 508.93 C -388.574 416.105 -345.702 312.976 -301.167 233.638 C -299.611 230.864 -298.073 228.081 -296.535 225.297 C -268.489 174.787 -234.546 126.883 -195.163 84.5571 C -193.482 82.7505 -191.805 80.9396 -190.129 79.1289 C -174.472 62.2501 -174.472 62.2501 -165.824 54.8281 C -163.342 52.6622 -160.938 50.4209 -158.523 48.1797 C -152.716 42.8855 -146.607 38.0545 -140.377 33.269 C -138.75 32.0081 -137.142 30.7216 -135.535 29.4336 C -101.48 2.38827 -41.2792 -32.2684 0 0 Z" fill="#1A3561" transform="matrix(1,0,0,1,751.648,781.07)"/><path d=" M 0 0 C 1.61009 1.49364 3.21464 2.99329 4.8125 4.5 C 5.47766 5.1007 6.14281 5.70141 6.82812 6.32031 C 55.6358 52.1519 63.5274 136.69 65.6038 199.778 C 65.6891 203.018 65.7553 206.259 65.8125 209.5 C 65.8344 210.654 65.8563 211.808 65.8789 212.998 C 67.3352 303.443 53.6476 393.622 22.5171 537.638 C 21.7998 540.552 21.0888 543.467 20.3789 546.382 C 6.53639 603.084 -10.175 658.996 -28.1875 714.5 C -28.4969 715.456 -28.8063 716.413 -29.1251 717.398 C -41.8449 756.713 -55.8505 795.593 -70.4375 834.25 C -70.7818 835.164 -71.1261 836.077 -71.4809 837.018 C -75.8522 848.597 -80.4081 860.084 -85.1875 871.5 C -93.0929 867.656 -100.753 863.545 -108.312 859.062 C -110.422 857.822 -112.531 856.583 -114.641 855.344 C -115.719 854.71 -116.797 854.075 -117.908 853.422 C -123.277 850.275 -128.67 847.168 -134.062 844.062 C -135.681 843.13 -135.681 843.13 -137.333 842.178 C -139.523 840.916 -141.714 839.653 -143.905 838.391 C -149.334 835.263 -154.761 832.131 -160.188 829 C -162.354 827.75 -164.521 826.5 -166.688 825.25 C -223.021 792.75 -279.354 760.25 -335.688 727.75 C -336.76 727.131 -337.833 726.512 -338.938 725.875 C -341.103 724.626 -343.268 723.376 -345.433 722.127 C -350.874 718.988 -356.315 715.85 -361.758 712.715 C -372.21 706.693 -382.65 700.653 -393.062 694.562 C -401.74 689.487 -410.454 684.477 -419.188 679.5 C -428.909 673.96 -438.596 668.366 -448.254 662.717 C -458.778 656.562 -469.341 650.476 -479.905 644.391 C -485.334 641.263 -490.761 638.131 -496.188 635 C -498.354 633.75 -500.521 632.5 -502.688 631.25 C -559.021 598.75 -615.354 566.25 -671.688 533.75 C -672.76 533.131 -673.833 532.512 -674.938 531.875 C -677.103 530.626 -679.268 529.376 -681.433 528.127 C -686.874 524.988 -692.315 521.85 -697.758 518.715 C -709.589 511.898 -721.406 505.059 -733.186 498.154 C -738.813 494.861 -744.472 491.637 -750.188 488.5 C -749.588 485.247 -748.546 483.393 -746.414 480.883 C -745.842 480.201 -745.27 479.518 -744.681 478.816 C -744.065 478.093 -743.448 477.37 -742.812 476.625 C -741.525 475.091 -740.238 473.556 -738.953 472.02 C -737.993 470.874 -737.993 470.874 -737.014 469.706 C -734.463 466.625 -732.008 463.476 -729.562 460.312 C -725.371 454.917 -720.998 449.704 -716.527 444.538 C -713.525 441.068 -710.578 437.564 -707.688 434 C -703.755 429.156 -699.708 424.422 -695.633 419.698 C -692.55 416.115 -689.532 412.491 -686.562 408.812 C -682.76 404.124 -678.736 399.682 -674.648 395.242 C -672.277 392.6 -670.035 389.893 -667.812 387.125 C -663.426 381.688 -658.728 376.596 -653.965 371.492 C -651.251 368.582 -648.63 365.6 -646.027 362.59 C -643.148 359.319 -640.184 356.125 -637.232 352.919 C -634.7 350.165 -632.197 347.392 -629.75 344.562 C -625.219 339.341 -620.491 334.3 -615.79 329.232 C -614.186 327.499 -612.588 325.76 -610.992 324.02 C -606.375 318.989 -601.751 313.99 -596.868 309.213 C -595.177 307.49 -593.616 305.701 -592.051 303.863 C -587.267 298.364 -582.053 293.318 -576.859 288.211 C -573.471 284.858 -570.143 281.515 -567.059 277.879 C -561.8 271.763 -555.99 266.154 -550.281 260.464 C -548.255 258.442 -546.234 256.416 -544.213 254.389 C -538.603 248.777 -533.025 243.201 -526.97 238.065 C -523.363 234.899 -520.049 231.423 -516.688 228 C -511.936 223.162 -507.146 218.473 -501.98 214.074 C -500.134 212.453 -498.407 210.754 -496.688 209 C -494.43 206.707 -492.128 204.536 -489.688 202.438 C -485.582 198.902 -481.638 195.206 -477.688 191.5 C -472.6 186.735 -467.492 182.024 -462.188 177.5 C -461.166 176.625 -460.146 175.75 -459.125 174.875 C -457.355 173.358 -455.586 171.841 -453.814 170.326 C -450.036 167.092 -446.27 163.842 -442.516 160.58 C -432.402 151.793 -422.284 143.062 -411.703 134.84 C -406.915 131.107 -402.234 127.253 -397.562 123.375 C -392.006 118.773 -386.395 114.301 -380.582 110.023 C -377.842 108.003 -375.144 105.932 -372.449 103.852 C -362.394 96.0966 -352.229 88.6325 -341.68 81.5625 C -338.393 79.3512 -335.189 77.0487 -332 74.6992 C -325.585 70.0082 -318.968 65.649 -312.312 61.3125 C -311.68 60.8993 -311.047 60.486 -310.394 60.0602 C -284.426 43.1143 -257.874 27.4904 -230.188 13.5 C -229.087 12.9417 -227.986 12.3833 -226.853 11.8081 C -191.615 -5.95955 -155.1 -19.3006 -116.188 -26.5 C -115.402 -26.647 -114.616 -26.7939 -113.807 -26.9453 C -74.0968 -33.9815 -30.7353 -27.1495 0 0 Z" fill="#FCB315" transform="matrix(1,0,0,1,2257.19,637.5)"/><path d=" M 0 0 C 4.10897 1.25761 7.65407 2.77976 11.3594 4.94922 C 12.8888 5.83867 12.8888 5.83867 14.4492 6.74609 C 16.0831 7.70709 16.0831 7.70709 17.75 8.6875 C 18.9072 9.36257 20.0648 10.037 21.2227 10.7109 C 23.6257 12.1102 26.0272 13.5119 28.4277 14.9155 C 33.9379 18.1345 39.4701 21.3152 45 24.5 C 47.1668 25.7498 49.3334 26.9998 51.5 28.25 C 52.5725 28.8687 53.645 29.4875 54.75 30.125 C 137.625 77.9375 137.625 77.9375 220.5 125.75 C 221.573 126.369 222.645 126.988 223.75 127.625 C 225.916 128.874 228.081 130.124 230.246 131.373 C 235.686 134.512 241.127 137.65 246.57 140.785 C 257.022 146.807 267.463 152.847 277.875 158.938 C 286.553 164.013 295.266 169.023 304 174 C 313.721 179.54 323.409 185.134 333.067 190.783 C 343.591 196.938 354.154 203.024 364.718 209.109 C 370.147 212.237 375.573 215.369 381 218.5 C 383.167 219.75 385.333 221 387.5 222.25 C 452.5 259.75 517.5 297.25 582.5 334.75 C 583.573 335.369 584.645 335.988 585.75 336.625 C 587.916 337.874 590.081 339.124 592.246 340.373 C 597.686 343.512 603.128 346.65 608.57 349.785 C 620.318 356.554 632.047 363.351 643.752 370.192 C 651.142 374.508 658.555 378.78 666 383 C 664.693 385.805 663.242 388.116 661.277 390.504 C 660.744 391.156 660.21 391.809 659.66 392.481 C 659.091 393.168 658.523 393.855 657.938 394.562 C 657.351 395.277 656.765 395.992 656.161 396.728 C 654.982 398.163 653.803 399.597 652.622 401.03 C 650.528 403.573 648.453 406.131 646.375 408.688 C 642.661 413.224 638.88 417.7 635.083 422.167 C 632.204 425.56 629.368 428.983 626.562 432.438 C 621.664 438.451 616.611 444.326 611.548 450.202 C 609.526 452.55 607.509 454.903 605.493 457.257 C 604.497 458.42 603.5 459.583 602.503 460.745 C 599.984 463.681 597.47 466.622 594.965 469.57 C 589.256 476.28 583.438 482.86 577.457 489.328 C 574.83 492.185 572.271 495.093 569.727 498.023 C 563.955 504.631 558.015 511.088 552.078 517.547 C 549.279 520.595 546.506 523.663 543.75 526.75 C 538.655 532.424 533.432 537.977 528.204 543.529 C 525.559 546.34 522.919 549.156 520.285 551.978 C 511.052 561.856 501.631 571.518 492.062 581.07 C 490.602 582.531 489.142 583.992 487.682 585.454 C 484.659 588.479 481.633 591.502 478.607 594.523 C 474.746 598.378 470.89 602.238 467.035 606.099 C 464.036 609.102 461.034 612.102 458.032 615.102 C 456.609 616.524 455.187 617.947 453.765 619.371 C 440.42 632.733 440.42 632.733 434.468 637.752 C 432.355 639.549 430.43 641.51 428.5 643.5 C 425.236 646.803 421.886 649.901 418.363 652.922 C 415.183 655.718 412.095 658.61 409 661.5 C 404.695 665.516 400.37 669.491 395.91 673.336 C 393.638 675.315 391.415 677.346 389.188 679.375 C 384.817 683.324 380.297 687.046 375.719 690.75 C 373.079 692.935 370.533 695.192 368 697.5 C 363.353 701.726 358.54 705.702 353.658 709.651 C 351.07 711.757 348.501 713.885 345.93 716.011 C 326.501 732.065 306.637 747.458 286.285 762.325 C 284.204 763.851 282.132 765.388 280.062 766.93 C 257.273 783.783 233.333 799.477 209 814 C 208.101 814.542 207.202 815.084 206.275 815.643 C 189.887 825.502 173.085 834.427 156 843 C 154.921 843.544 153.841 844.089 152.729 844.649 C 119.862 861.139 85.1309 873.917 49 881 C 48.1078 881.178 47.2156 881.356 46.2964 881.539 C 23.5224 885.881 -3.44905 886.789 -26 881 C -26.9876 880.751 -26.9876 880.751 -27.9951 880.496 C -62.7755 871.454 -87.6389 848.497 -105.683 817.942 C -138.274 761.003 -143.242 690.308 -143.188 626.125 C -143.187 625.464 -143.187 624.803 -143.187 624.122 C -143.176 602.022 -142.766 580.035 -141 558 C -140.937 557.195 -140.874 556.39 -140.809 555.561 C -134.265 472.506 -119.204 390.282 0 0 Z" fill="#FCB315" transform="matrix(1,0,0,1,1078,1866)"/><path d=" M 0 0 C 0.829059 0.00149048 1.65812 0.00298096 2.5123 0.0045166 C 15.3081 0.0457631 27.6915 0.68949 40.25 3.3125 C 41.2941 3.51335 41.2941 3.51335 42.3594 3.71826 C 80.9614 11.201 117.226 29.8734 145.699 56.9375 C 148.204 59.3321 148.204 59.3321 150.875 61.3945 C 153.044 63.1461 154.769 64.8771 156.562 67 C 158.361 69.1149 160.154 71.2104 162.055 73.2344 C 201.778 115.76 216.162 173.599 214.25 230.312 C 213.652 245.775 210.169 260.382 206.25 275.312 C 207.354 274.995 207.354 274.995 208.479 274.672 C 215.6 272.741 222.131 271.796 229.5 271.875 C 230.99 271.885 230.99 271.885 232.511 271.896 C 241.266 272.084 248.954 273.498 257.25 276.312 C 258.302 276.663 259.354 277.014 260.438 277.375 C 279.568 284.549 294.14 299.433 302.852 317.664 C 304.893 322.476 306.622 327.347 308.25 332.312 C 312.197 328.966 316.067 325.566 319.875 322.062 C 363.712 282.642 420.755 264.494 479.25 267.312 C 486.337 267.862 493.276 268.963 500.25 270.312 C 500.973 270.441 501.695 270.57 502.44 270.702 C 544.095 278.165 581.854 298.231 612.25 327.312 C 612.802 327.832 613.353 328.351 613.921 328.885 C 623.479 337.909 631.641 347.599 639.25 358.312 C 639.661 358.889 640.071 359.466 640.494 360.06 C 655.236 381.093 666.09 405.403 672.25 430.312 C 672.525 431.412 672.799 432.512 673.082 433.645 C 676.762 449.505 677.66 465.519 677.625 481.75 C 677.625 482.613 677.625 483.477 677.625 484.366 C 677.586 504.424 675.75 524.215 669.25 543.312 C 668.766 544.817 668.285 546.322 667.805 547.828 C 665.328 555.515 662.759 563.024 659.25 570.312 C 665.807 574.488 672.51 578.373 679.271 582.207 C 695.111 591.284 695.111 591.284 697.25 598.312 C 698.011 604.746 698.227 610.925 694.25 616.312 C 688.287 622.152 684.444 623.906 675.984 623.839 C 669.057 622.862 663.569 619.089 657.75 615.438 C 655.895 614.311 654.035 613.192 652.175 612.075 C 650.503 611.066 648.842 610.038 647.182 609.008 C 644.577 607.502 642.072 606.338 639.25 605.312 C 638.359 606.511 638.359 606.511 637.449 607.734 C 631.479 615.682 625.129 623.135 618.25 630.312 C 617.697 630.898 617.144 631.483 616.575 632.086 C 590.852 659.223 558.076 677.873 522.25 688.312 C 521.46 688.55 520.669 688.789 519.855 689.034 C 487.666 698.648 453.047 699.198 420.25 692.312 C 419.348 692.125 418.445 691.938 417.516 691.745 C 384.474 684.67 353.652 669.28 327.25 648.312 C 326.377 647.632 325.505 646.951 324.605 646.25 C 280.898 611.438 250.043 561.711 243.688 505.664 C 241.291 480.238 243.353 454.605 251.25 430.312 C 251.47 429.62 251.691 428.928 251.917 428.215 C 255.014 418.589 258.849 409.4 263.179 400.262 C 268.36 389.183 270.275 378.088 266.688 366.125 C 260.294 349.099 246.394 339.039 230.5 331.438 C 218.097 326.137 205.191 325.533 192.355 329.988 C 179.723 335.375 173.021 343.737 165.365 354.675 C 154.977 369.31 142.425 382.337 128.25 393.312 C 127.247 394.094 126.244 394.875 125.211 395.68 C 102.692 412.73 75.9682 424.198 48.25 429.312 C 47.375 429.475 46.5001 429.637 45.5986 429.804 C 10.9133 435.917 -24.2807 432.646 -57.75 422.312 C -58.9375 421.951 -58.9375 421.951 -60.1489 421.583 C -117.86 403.68 -163.81 363.27 -191.973 310.438 C -200.084 294.675 -206.056 277.632 -209.75 260.312 C -209.915 259.599 -210.08 258.885 -210.25 258.149 C -220.53 213.512 -213.675 163.173 -193.75 122.312 C -194.457 122.045 -195.164 121.777 -195.893 121.501 C -201.184 119.3 -206.117 116.397 -211.125 113.625 C -212.236 113.025 -213.347 112.425 -214.492 111.807 C -221.619 107.857 -228.439 103.934 -232.188 96.4375 C -233.149 91.0984 -233.417 86.3978 -231.75 81.1875 C -228.465 76.4655 -224.276 72.1546 -218.75 70.3125 C -207.705 68.9596 -199.085 75.0909 -189.875 80.4375 C -188.471 81.2438 -188.471 81.2438 -187.039 82.0664 C -183.549 84.0772 -180.102 86.0776 -176.75 88.3125 C -174.134 88.1234 -173.065 87.6434 -171.25 85.7383 C -170.508 84.6922 -170.508 84.6922 -169.75 83.625 C -160.624 71.3319 -150.56 60.1907 -138.602 50.6172 C -136.819 49.1765 -135.059 47.7066 -133.336 46.1953 C -109.371 25.4257 -78.5577 12.5394 -48.0625 5 C -47.0901 4.75725 -46.1176 4.51451 -45.1157 4.2644 C -30.1815 0.758426 -15.2799 -0.0684242 0 0 Z" fill="#FDFEFE" transform="matrix(1,0,0,1,1414.75,1336.69)"/><path d=" M 0 0 C 0.774243 0.140045 1.54849 0.280089 2.34619 0.424377 C 4.4722 0.811621 6.59573 1.21003 8.71875 1.61328 C 9.89373 1.83411 11.0687 2.05495 12.2793 2.28247 C 15 3 15 3 17 5 C 16.3579 5.38108 15.7158 5.76216 15.0542 6.15479 C -31.042 33.5538 -75.1412 63.6219 -117.7 96.2388 C -119.681 97.7557 -121.665 99.2679 -123.652 100.777 C -130.199 105.77 -136.614 110.902 -142.987 116.114 C -147.3 119.637 -151.661 123.088 -156.062 126.5 C -161.74 130.915 -167.188 135.559 -172.597 140.298 C -176.258 143.504 -179.962 146.632 -183.75 149.688 C -188.425 153.47 -192.847 157.478 -197.27 161.551 C -199.845 163.861 -202.483 166.032 -205.188 168.188 C -210.774 172.69 -215.971 177.564 -221.167 182.509 C -225.049 186.199 -229.002 189.775 -233.047 193.285 C -236.158 196.017 -239.172 198.85 -242.188 201.688 C -246.482 205.715 -250.786 209.729 -255.129 213.704 C -260.664 218.771 -266.03 223.959 -271.27 229.332 C -273.271 231.287 -275.258 233.086 -277.385 234.89 C -283.384 240.122 -288.947 245.803 -294.566 251.434 C -295.771 252.638 -296.976 253.842 -298.181 255.045 C -300.695 257.558 -303.207 260.072 -305.718 262.587 C -308.917 265.792 -312.121 268.993 -315.326 272.192 C -317.812 274.674 -320.295 277.159 -322.777 279.644 C -323.957 280.824 -325.137 282.004 -326.319 283.182 C -331.91 288.765 -337.478 294.328 -342.585 300.365 C -345.066 303.232 -347.79 305.852 -350.5 308.5 C -354.644 312.592 -358.623 316.734 -362.395 321.176 C -364.736 323.836 -367.264 326.29 -369.812 328.75 C -371.71 330.702 -373.497 332.695 -375.281 334.75 C -379.518 339.629 -383.952 344.31 -388.395 349 C -392.143 352.973 -395.79 357.013 -399.37 361.138 C -401.653 363.746 -404.012 366.276 -406.375 368.812 C -409.848 372.566 -413.175 376.381 -416.375 380.375 C -419.907 384.768 -423.639 388.899 -427.5 393 C -432.188 397.979 -436.612 403.082 -440.891 408.422 C -443.02 411.024 -445.234 413.516 -447.5 416 C -451.322 420.197 -454.915 424.537 -458.484 428.949 C -461.429 432.521 -464.457 436.012 -467.5 439.5 C -471.94 444.597 -476.302 449.74 -480.559 454.992 C -483.686 458.845 -486.843 462.672 -490 466.5 C -495.347 472.989 -500.686 479.484 -506 486 C -506.483 486.591 -506.966 487.182 -507.463 487.791 C -514.611 496.541 -521.678 505.346 -528.631 514.251 C -530.066 516.085 -531.509 517.912 -532.953 519.738 C -533.442 520.358 -533.931 520.977 -534.435 521.615 C -535.359 522.784 -536.283 523.952 -537.209 525.12 C -540.266 528.996 -543.154 532.966 -546 537 C -549.544 535.655 -552.808 534.088 -556.113 532.234 C -557.101 531.682 -558.089 531.129 -559.107 530.559 C -560.165 529.962 -561.223 529.365 -562.312 528.75 C -563.423 528.126 -564.533 527.502 -565.677 526.859 C -574.086 522.116 -582.437 517.278 -590.765 512.394 C -598.479 507.873 -606.232 503.425 -614 499 C -623.721 493.46 -633.409 487.866 -643.067 482.217 C -653.591 476.062 -664.154 469.976 -674.718 463.891 C -680.147 460.763 -685.573 457.631 -691 454.5 C -693.167 453.25 -695.333 452 -697.5 450.75 C -753.833 418.25 -810.167 385.75 -866.5 353.25 C -867.573 352.631 -868.645 352.012 -869.75 351.375 C -871.916 350.126 -874.081 348.876 -876.246 347.627 C -881.686 344.488 -887.128 341.35 -892.57 338.215 C -903.022 332.193 -913.463 326.153 -923.875 320.062 C -932.553 314.987 -941.266 309.977 -950 305 C -959.702 299.471 -969.371 293.889 -979.01 288.25 C -986.823 283.679 -994.658 279.146 -1002.5 274.625 C -1003.37 274.122 -1003.37 274.122 -1004.26 273.609 C -1007.51 271.738 -1010.75 269.869 -1014 268 C -1014 267.34 -1014 266.68 -1014 266 C -1012.33 264.555 -1010.58 263.198 -1008.81 261.875 C -1007.61 260.973 -1006.42 260.07 -1005.22 259.168 C -1004.22 258.417 -1004.22 258.417 -1003.19 257.65 C -1000.81 255.86 -998.453 254.051 -996.094 252.238 C -985.587 244.172 -975 236.242 -964.204 228.567 C -962.769 227.547 -961.336 226.525 -959.905 225.5 C -947.597 216.69 -935.023 208.279 -922.438 199.875 C -921.62 199.328 -920.802 198.781 -919.959 198.217 C -902.957 186.854 -885.737 175.894 -868.125 165.5 C -866.732 164.676 -865.339 163.851 -863.946 163.027 C -837.678 147.503 -811.007 132.829 -783.837 118.94 C -781.976 117.988 -780.117 117.033 -778.257 116.077 C -758.558 105.968 -738.568 96.6953 -718.267 87.8623 C -714.924 86.4063 -711.588 84.9327 -708.257 83.4486 C -675.532 68.8721 -641.909 56.518 -608 45 C -607.27 44.751 -606.539 44.5019 -605.787 44.2454 C -515.317 13.4233 -420.995 -6.2094 0 0 Z" fill="#FCB315" transform="matrix(1,0,0,1,1896,497)"/><path d=" M 0 0 C 4.91836 3.99091 9.16945 8.2258 13.25 13.0625 C 14.088 14.0437 14.088 14.0437 14.9429 15.0447 C 16.0857 16.3845 17.2262 17.7264 18.3643 19.0703 C 19.8685 20.8449 21.3815 22.6113 22.8984 24.375 C 28.51 30.9207 33.9005 37.6143 39.1953 44.418 C 41.0632 46.8146 42.9534 49.1906 44.8672 51.5508 C 52.906 61.4665 60.4974 71.6741 68 82 C 68.548 82.7518 69.096 83.5037 69.6606 84.2783 C 73.4659 89.5007 77.2444 94.7417 81 100 C 81.5565 100.779 82.1131 101.558 82.6865 102.361 C 103.006 130.899 121.58 160.616 139 191 C 139.554 191.963 140.109 192.926 140.68 193.918 C 148.328 207.222 155.586 220.692 162.615 234.332 C 163.898 236.804 165.201 239.264 166.516 241.719 C 197.341 299.286 221.235 360.82 241.311 422.874 C 241.976 424.927 242.645 426.979 243.315 429.031 C 250.468 450.982 256.591 473.182 262.363 495.533 C 262.967 497.871 263.575 500.209 264.183 502.546 C 285.855 586.162 298.05 672.747 302 759 C 302.042 759.891 302.085 760.781 302.128 761.698 C 303.083 782.258 303.202 802.799 303.188 823.375 C 303.187 824.221 303.187 825.067 303.187 825.938 C 303.176 853.336 302.871 880.656 301 908 C 300.902 909.454 300.902 909.454 300.801 910.937 C 298.224 948.748 294.518 986.498 289 1024 C 285.609 1023.33 282.989 1022.02 279.984 1020.33 C 278.993 1019.78 278.002 1019.22 276.981 1018.65 C 275.382 1017.74 275.382 1017.74 273.75 1016.81 C 272.635 1016.18 271.521 1015.56 270.372 1014.91 C 261.95 1010.14 253.582 1005.29 245.235 1000.39 C 237.522 995.873 229.768 991.425 222 987 C 212.279 981.46 202.591 975.866 192.933 970.217 C 182.409 964.062 171.846 957.976 161.282 951.891 C 155.853 948.763 150.427 945.631 145 942.5 C 142.833 941.25 140.667 940 138.5 938.75 C 82.1667 906.25 25.8333 873.75 -30.5 841.25 C -31.5727 840.631 -32.6453 840.012 -33.7505 839.375 C -35.9156 838.126 -38.0806 836.876 -40.2456 835.627 C -45.6862 832.488 -51.1275 829.35 -56.5703 826.215 C -67.0221 820.193 -77.463 814.153 -87.875 808.062 C -96.5526 802.987 -105.266 797.977 -114 793 C -123.703 787.47 -133.377 781.893 -143.012 776.245 C -148.404 773.087 -153.81 769.958 -159.238 766.863 C -160.451 766.17 -161.664 765.477 -162.876 764.783 C -165.211 763.449 -167.549 762.121 -169.889 760.797 C -170.935 760.199 -171.981 759.601 -173.059 758.984 C -174.455 758.191 -174.455 758.191 -175.881 757.382 C -178 756 -178 756 -179 754 C -178.228 751.656 -177.386 749.423 -176.449 747.145 C -176.022 746.077 -176.022 746.077 -175.585 744.987 C -174.958 743.424 -174.328 741.862 -173.695 740.3 C -171.948 735.987 -170.23 731.663 -168.508 727.34 C -167.958 725.963 -167.958 725.963 -167.398 724.558 C -154.272 691.623 -141.929 658.385 -130 625 C -129.711 624.192 -129.422 623.384 -129.124 622.551 C -95.3831 528.229 -66.2257 432.257 0 0 Z" fill="#FCB315" transform="matrix(1,0,0,1,2508,845)"/><path d=" M 0 0 C 6.18166 1.62839 11.3109 4.94247 16.75 8.1875 C 18.9137 9.4642 21.0778 10.7402 23.2422 12.0156 C 24.3582 12.675 25.4742 13.3343 26.624 14.0137 C 32.0213 17.1893 37.4476 20.3138 42.875 23.4375 C 45.0599 24.6966 47.2448 25.9557 49.4297 27.2148 C 51.0573 28.1524 51.0573 28.1524 52.7178 29.1089 C 58.1466 32.2368 63.5732 35.3686 69 38.5 C 71.1667 39.75 73.3333 41 75.5 42.25 C 123.167 69.75 170.833 97.25 218.5 124.75 C 219.573 125.369 220.645 125.988 221.75 126.625 C 223.916 127.874 226.081 129.124 228.246 130.373 C 233.686 133.512 239.127 136.65 244.57 139.785 C 255.022 145.807 265.463 151.847 275.875 157.938 C 284.553 163.013 293.266 168.023 302 173 C 311.721 178.54 321.409 184.134 331.067 189.783 C 341.591 195.938 352.154 202.024 362.718 208.109 C 368.147 211.237 373.573 214.369 379 217.5 C 381.167 218.75 383.333 220 385.5 221.25 C 389.833 223.75 394.167 226.25 398.5 228.75 C 399.573 229.369 400.646 229.988 401.751 230.625 C 403.914 231.874 406.078 233.122 408.241 234.371 C 413.706 237.524 419.172 240.675 424.641 243.82 C 430.042 246.928 435.437 250.044 440.83 253.167 C 442.971 254.405 445.115 255.64 447.26 256.872 C 450.366 258.656 453.465 260.452 456.562 262.25 C 457.503 262.787 458.444 263.324 459.413 263.877 C 460.268 264.377 461.123 264.876 462.004 265.391 C 462.755 265.824 463.506 266.258 464.28 266.704 C 466 268 466 268 467 271 C 450.821 283.207 434.489 295.214 418 307 C 416.879 307.803 416.879 307.803 415.735 308.622 C 370.355 341.037 322.271 369.944 273 396 C 271.537 396.775 271.537 396.775 270.044 397.565 C 263.385 401.086 256.701 404.559 250 408 C 248.517 408.763 248.517 408.763 247.005 409.541 C 229.257 418.639 211.217 427.001 193.001 435.109 C 191.089 435.961 189.178 436.816 187.268 437.671 C 103.092 475.267 14.1508 502.913 -142 532 C -142.828 532.119 -143.656 532.238 -144.509 532.361 C -227.782 544.249 -312.395 547.152 -540.562 521.688 C -541.812 521.445 -543.061 521.203 -544.348 520.953 C -546.034 520.611 -546.034 520.611 -547.754 520.262 C -548.727 520.065 -549.699 519.869 -550.701 519.667 C -553 519 -553 519 -555 517 C -548.168 512.733 -541.286 508.569 -534.335 504.5 C -506.72 488.319 -480.078 470.546 -454 452 C -453.251 451.468 -452.502 450.937 -451.73 450.389 C -440.998 442.759 -430.489 434.859 -420.039 426.848 C -416.284 423.972 -412.503 421.135 -408.702 418.322 C -400.174 412.002 -391.992 405.31 -383.836 398.52 C -381.454 396.548 -379.044 394.613 -376.625 392.688 C -368.346 386.095 -360.21 379.357 -352.197 372.445 C -348.637 369.38 -345.034 366.384 -341.375 363.438 C -336.322 359.337 -331.547 354.984 -326.777 350.562 C -323.89 347.899 -320.951 345.309 -317.984 342.734 C -314.811 339.961 -311.687 337.132 -308.559 334.309 C -306.907 332.819 -305.254 331.332 -303.598 329.848 C -296.666 323.635 -289.824 317.33 -283 311 C -282.368 310.415 -281.736 309.829 -281.085 309.226 C -274.577 303.194 -268.086 297.172 -261.87 290.837 C -260.165 289.163 -258.416 287.621 -256.59 286.082 C -250.44 280.73 -244.752 274.896 -238.996 269.129 C -237.746 267.88 -236.497 266.631 -235.247 265.383 C -232.639 262.776 -230.033 260.168 -227.428 257.558 C -224.107 254.232 -220.782 250.91 -217.456 247.59 C -214.878 245.015 -212.302 242.438 -209.727 239.861 C -208.503 238.636 -207.278 237.412 -206.052 236.188 C -197.476 227.638 -197.476 227.638 -189.399 218.619 C -186.926 215.757 -184.204 213.142 -181.5 210.5 C -177.334 206.387 -173.331 202.223 -169.539 197.758 C -167.423 195.341 -165.134 193.122 -162.842 190.874 C -161.065 189.066 -159.403 187.203 -157.75 185.281 C -153.501 180.394 -149.059 175.701 -144.605 171 C -140.851 167.02 -137.194 162.975 -133.607 158.844 C -131.443 156.361 -129.224 153.929 -127 151.5 C -121.981 145.991 -117.059 140.413 -112.219 134.746 C -111.188 133.539 -110.156 132.332 -109.125 131.125 C -108.605 130.516 -108.086 129.908 -107.55 129.281 C -104.521 125.744 -101.448 122.256 -98.3125 118.812 C -94.4615 114.573 -90.8516 110.171 -87.25 105.719 C -85.065 103.079 -82.8083 100.533 -80.5 98 C -76.6379 93.757 -72.9925 89.3766 -69.3828 84.918 C -66.7924 81.7458 -64.1531 78.6196 -61.5 75.5 C -56.5942 69.7248 -51.782 63.8782 -47 58 C -45.5838 56.2705 -44.1671 54.5413 -42.75 52.8125 C -30.1852 37.4507 -17.6661 22.052 -5.47607 6.39014 C -3.72873 4.15314 -2.0094 2.0094 0 0 Z" fill="#FCB315" transform="matrix(1,0,0,1,1901,2341)"/><path d=" M 0 0 C 7.90536 3.84382 15.5651 7.95537 23.125 12.4375 C 25.234 13.6777 27.3434 14.9172 29.4531 16.1562 C 30.5314 16.7905 31.6097 17.4247 32.7207 18.0781 C 38.0899 21.2248 43.4821 24.3316 48.875 27.4375 C 49.9541 28.0594 51.0332 28.6813 52.145 29.322 C 54.3358 30.5845 56.5267 31.8468 58.7178 33.1089 C 64.1466 36.2368 69.5732 39.3686 75 42.5 C 77.1667 43.75 79.3333 45 81.5 46.25 C 101 57.5 101 57.5 120.5 68.75 C 121.573 69.3688 122.645 69.9877 123.75 70.6252 C 125.916 71.8744 128.081 73.1235 130.246 74.3728 C 135.686 77.512 141.127 80.6499 146.57 83.7852 C 157.022 89.8075 167.463 95.8467 177.875 101.938 C 186.553 107.013 195.266 112.023 204 117 C 213.721 122.54 223.409 128.134 233.067 133.783 C 243.591 139.938 254.154 146.024 264.718 152.109 C 270.147 155.237 275.573 158.369 281 161.5 C 283.167 162.75 285.333 164 287.5 165.25 C 326.5 187.75 365.5 210.25 404.5 232.75 C 405.573 233.369 406.646 233.988 407.752 234.626 C 409.912 235.872 412.071 237.118 414.23 238.364 C 419.758 241.553 425.286 244.741 430.816 247.926 C 442.912 254.893 454.988 261.89 467 269 C 466.422 273.187 465.451 276.77 463.84 280.672 C 463.385 281.788 462.929 282.904 462.46 284.054 C 461.958 285.274 461.455 286.493 460.938 287.75 C 459.831 290.473 458.731 293.199 457.633 295.926 C 457.341 296.65 457.049 297.375 456.748 298.122 C 416.871 397.373 383.449 499.643 300 922 C 299.942 922.785 299.884 923.571 299.824 924.38 C 297.737 952.879 297.404 981.437 297 1010 C 295 1010 295 1010 293.695 1008.74 C 293.177 1008.13 292.659 1007.51 292.125 1006.88 C 291.501 1006.14 290.877 1005.41 290.234 1004.65 C 289.497 1003.78 288.76 1002.9 288 1002 C 286.629 1000.4 285.255 998.793 283.88 997.192 C 282.862 996.005 281.845 994.817 280.829 993.628 C 278.144 990.488 275.447 987.36 272.723 984.254 C 267.019 977.743 261.458 971.172 256.157 964.329 C 253.268 960.6 250.317 956.932 247.317 953.292 C 240.132 944.564 233.405 935.547 226.757 926.406 C 225.039 924.054 223.306 921.714 221.566 919.379 C 207.679 900.721 194.508 881.608 182 862 C 181.495 861.212 180.99 860.423 180.47 859.611 C 162.047 830.82 144.96 801.223 129 771 C 128.408 769.883 127.815 768.767 127.205 767.617 C 97.5362 711.587 73.3096 653.028 53 593 C 52.7643 592.306 52.5286 591.612 52.2857 590.897 C 21.3573 499.8 1.9209 404.655 -6.5 50.8125 C -6.39845 49.7763 -6.29689 48.7402 -6.19226 47.6726 C -5.08792 36.5151 -3.84192 25.3816 -2.40625 14.2617 C -2.28125 13.29 -2.15625 12.3183 -2.02747 11.3171 C -1.84855 9.96457 -1.84855 9.96457 -1.66602 8.58472 C -1.56148 7.79365 -1.45695 7.00258 -1.34924 6.18755 C -1.01323 4.08287 -0.550528 2.05794 0 0 Z" fill="#FCB315" transform="matrix(1,0,0,1,454,1505)"/><path d=" M 0 0 C 3.81315 1.47451 5.14815 3.36548 7.17969 6.85547 C 7.77121 7.85812 8.36272 8.86077 8.97217 9.8938 C 9.6001 10.9807 10.228 12.0676 10.875 13.1875 C 11.8851 14.904 12.8952 16.6205 13.9068 18.336 C 14.9418 20.0933 15.9729 21.8527 17.0039 23.6123 C 19.9097 28.5439 22.8881 33.4297 25.875 38.3125 C 27.0289 40.2043 28.1826 42.0962 29.3359 43.9883 C 29.926 44.9559 30.5161 45.9235 31.124 46.9204 C 34.2251 52.0111 37.3172 57.1072 40.4096 62.2031 C 47.6959 74.21 54.9932 86.2101 62.2983 98.2056 C 65.7856 103.932 69.2713 109.66 72.7573 115.387 C 75.6359 120.117 78.5148 124.846 81.3945 129.574 C 88.1345 140.643 94.8654 151.717 101.589 162.795 C 108.15 173.604 114.722 184.406 121.298 195.206 C 124.786 200.932 128.271 206.66 131.757 212.387 C 134.636 217.117 137.515 221.846 140.395 226.574 C 147.135 237.643 153.865 248.717 160.589 259.795 C 167.15 270.604 173.722 281.406 180.298 292.206 C 183.786 297.932 187.271 303.66 190.757 309.387 C 193.636 314.116 196.515 318.846 199.395 323.574 C 200.534 325.445 201.673 327.316 202.812 329.188 C 203.382 330.122 203.951 331.056 204.537 332.019 C 207.764 337.321 210.987 342.625 214.203 347.934 C 215.656 350.331 217.109 352.728 218.562 355.125 C 218.924 355.721 219.285 356.317 219.658 356.932 C 224.273 364.542 228.924 372.13 233.625 379.688 C 238.954 388.258 244.161 396.898 249.342 405.559 C 255.267 415.461 261.264 425.32 267.275 435.17 C 268.994 437.991 270.711 440.813 272.426 443.637 C 272.995 444.573 273.564 445.509 274.15 446.473 C 275.294 448.356 276.437 450.239 277.579 452.123 C 280.456 456.859 283.355 461.58 286.301 466.274 C 287.798 468.661 289.29 471.051 290.781 473.441 C 291.505 474.597 292.233 475.751 292.963 476.903 C 293.981 478.507 294.987 480.119 295.992 481.73 C 296.573 482.652 297.155 483.574 297.753 484.524 C 299 487 299 487 299 491 C 284.195 491.072 269.414 490.861 254.615 490.482 C 252.33 490.425 250.045 490.369 247.761 490.313 C 241.543 490.16 235.326 490.003 229.108 489.846 C 223.073 489.694 217.038 489.544 211.003 489.394 C 194.875 488.994 178.747 488.588 162.619 488.181 C 154.988 487.989 147.356 487.797 139.724 487.605 C 113.582 486.948 87.4395 486.29 61.2974 485.628 C 59.6608 485.586 58.0243 485.545 56.3877 485.503 C 55.5762 485.483 54.7647 485.462 53.9286 485.441 C 49.8174 485.337 45.7063 485.233 41.5952 485.128 C 40.7794 485.108 39.9636 485.087 39.123 485.066 C 12.6085 484.394 -13.9062 483.73 -40.421 483.071 C -68.4821 482.373 -96.543 481.668 -124.604 480.955 C -127.68 480.876 -130.757 480.798 -133.833 480.72 C -134.59 480.701 -135.348 480.682 -136.128 480.662 C -148.33 480.352 -160.533 480.049 -172.735 479.748 C -184.978 479.446 -197.22 479.137 -209.463 478.821 C -216.098 478.649 -222.733 478.481 -229.369 478.322 C -235.434 478.176 -241.499 478.021 -247.564 477.859 C -249.765 477.802 -251.967 477.748 -254.169 477.697 C -257.147 477.628 -260.123 477.548 -263.1 477.465 C -263.968 477.448 -264.837 477.43 -265.732 477.413 C -269.631 477.291 -271.685 477.21 -275 475 C -274.524 474.219 -274.049 473.438 -273.559 472.633 C -266.514 461.003 -259.749 449.214 -252.972 437.427 C -249.82 431.948 -246.66 426.474 -243.5 421 C -242.25 418.833 -241 416.667 -239.75 414.5 C -207.25 358.167 -174.75 301.833 -142.25 245.5 C -141.631 244.427 -141.012 243.355 -140.375 242.25 C -139.126 240.084 -137.876 237.919 -136.627 235.754 C -133.488 230.314 -130.35 224.873 -127.215 219.43 C -121.193 208.978 -115.153 198.537 -109.062 188.125 C -103.987 179.447 -98.9774 170.734 -94 162 C -88.46 152.279 -82.8662 142.591 -77.2166 132.933 C -71.0623 122.409 -64.9763 111.846 -58.8911 101.282 C -55.7632 95.8534 -52.6314 90.4268 -49.5 85 C -48.25 82.8333 -47 80.6667 -45.75 78.5 C -42 72 -42 72 -38.25 65.5 C -37.3215 63.8905 -37.3215 63.8905 -36.3743 62.2485 C -35.1269 60.0866 -33.8794 57.9248 -32.6316 55.7632 C -29.4639 50.2749 -26.3004 44.7842 -23.1445 39.2891 C -15.568 26.1073 -7.88637 12.999 0 0 Z" fill="#FBB215" transform="matrix(1,0,0,1,2736,1998)"/><path d=" M 0 0 C 25.3488 0.686758 50.6707 1.80105 76 3 C 76 13.56 76 24.12 76 35 C 77.8562 33.3706 79.7125 31.7412 81.625 30.0625 C 108.644 6.99707 140.796 -1.91436 176 0 C 200.328 2.27773 224.053 13.1675 240 32 C 245.928 39.6048 251.245 47.6118 256 56 C 257.034 54.8572 257.034 54.8572 258.09 53.6914 C 260.562 50.9687 263.052 48.2621 265.551 45.5645 C 266.797 44.2187 268.038 42.8677 269.277 41.5156 C 288.484 21.3428 317.399 9.56077 345.031 8.66406 C 378.143 8.26602 406.204 15.4703 430.824 38.6602 C 456.111 64.9535 456.664 102.57 456.048 136.885 C 455.747 150.2 455.044 163.509 454.418 176.812 C 454.192 181.619 453.974 186.427 453.754 191.234 C 453.386 199.278 453.013 207.322 452.637 215.365 C 452.203 224.646 451.776 233.926 451.352 243.207 C 450.942 252.191 450.528 261.176 450.112 270.16 C 449.936 273.964 449.761 277.767 449.587 281.57 C 449.383 286.036 449.175 290.503 448.964 294.969 C 448.888 296.602 448.812 298.236 448.738 299.869 C 448.636 302.105 448.531 304.34 448.424 306.576 C 448.366 307.824 448.308 309.072 448.248 310.358 C 447.981 314.272 447.521 318.112 447 322 C 430.565 322.28 414.219 321.401 397.812 320.5 C 395.105 320.354 392.397 320.21 389.689 320.066 C 383.126 319.716 376.563 319.36 370 319 C 371.006 292.88 372.076 266.764 373.289 240.652 C 373.344 239.475 373.398 238.297 373.454 237.084 C 373.957 226.233 374.462 215.383 374.974 204.533 C 375.258 198.491 375.539 192.448 375.817 186.406 C 375.922 184.151 376.028 181.896 376.135 179.641 C 377.347 155.249 377.347 155.249 376.25 130.875 C 376.163 129.95 376.076 129.025 375.986 128.071 C 374.498 113.841 371.155 97.9369 360 88 C 347.274 78.7918 333.111 76.4578 317.656 78.4258 C 302.014 81.5201 288.995 90.6483 279.652 103.465 C 261.455 131.385 262.723 168.036 261.282 200.219 C 261.1 204.239 260.909 208.259 260.718 212.279 C 260.36 219.842 260.012 227.406 259.666 234.97 C 259.272 243.602 258.867 252.234 258.462 260.865 C 257.63 278.576 256.811 296.288 256 314 C 247.437 313.629 238.874 313.256 230.311 312.878 C 226.334 312.703 222.357 312.529 218.38 312.357 C 214.535 312.191 210.69 312.022 206.845 311.851 C 205.385 311.787 203.925 311.724 202.465 311.661 C 194.618 311.325 186.805 310.916 179 310 C 178.719 296.138 179.524 282.32 180.212 268.48 C 180.383 264.996 180.55 261.511 180.716 258.027 C 181.281 246.213 181.853 234.398 182.437 222.585 C 184.509 182.735 184.509 182.735 185.312 142.848 C 185.316 142.119 185.319 141.391 185.323 140.64 C 185.382 119.281 183.038 96.5446 167.719 80.332 C 157.634 71.6819 145.211 68.4693 132.137 68.7539 C 116.359 69.9917 102.76 76.874 91.8477 88.2422 C 74.6045 108.431 71.6117 135.923 69.9771 161.417 C 69.8529 163.287 69.8529 163.287 69.7262 165.196 C 68.8513 178.718 68.2015 192.251 67.5856 205.787 C 67.4252 209.297 67.261 212.807 67.0972 216.317 C 66.7901 222.91 66.4862 229.504 66.1837 236.098 C 65.838 243.627 65.4885 251.155 65.1388 258.684 C 64.4218 274.123 63.7093 289.561 63 305 C 54.1415 304.63 45.2832 304.256 36.425 303.878 C 32.3113 303.703 28.1974 303.529 24.0835 303.357 C 20.1087 303.191 16.1341 303.023 12.1596 302.851 C 10.6479 302.787 9.13615 302.724 7.62436 302.661 C 5.49682 302.574 3.36951 302.482 1.24219 302.389 C 0.0341748 302.338 -1.17384 302.287 -2.41846 302.234 C -6.31413 301.979 -10.1314 301.519 -14 301 C -11.1322 235.223 -8.17223 169.45 -5.1563 103.68 C -4.84012 96.7829 -4.52485 89.886 -4.20996 82.9892 C -3.82139 74.4794 -3.43144 65.9697 -3.03979 57.46 C -2.83735 53.061 -2.63544 48.662 -2.43502 44.263 C -2.24925 40.1863 -2.06176 36.1096 -1.87298 32.0331 C -1.805 30.559 -1.7376 29.0848 -1.67088 27.6106 C -1.25335 18.3946 -0.703197 9.19889 0 0 Z" fill="#1A3561" transform="matrix(1,0,0,1,1261,3061)"/><path d=" M 0 0 C 1.61299 1.49051 3.2172 2.99058 4.8125 4.5 C 5.63363 5.26828 6.45477 6.03656 7.30078 6.82812 C 31.9095 30.5566 46.1355 62.1772 51.8125 95.5 C 52.02 96.5106 52.2276 97.5212 52.4414 98.5625 C 59.6335 136.384 48.1735 179.015 26.8125 210.5 C 21.3586 218.34 15.38 225.573 8.8125 232.5 C 7.47252 233.937 7.47252 233.937 6.10547 235.402 C -21.2581 264.157 -61.8587 281.543 -101.379 282.812 C -143.508 283.487 -184.75 270.751 -215.965 241.566 C -217.963 239.709 -220.019 237.982 -222.125 236.25 C -250.375 211.468 -266.801 171.259 -270.188 134.5 C -270.464 129.35 -270.522 124.219 -270.5 119.062 C -270.498 118.385 -270.496 117.708 -270.494 117.011 C -270.448 106.826 -269.809 97.3873 -267.188 87.5 C -266.829 85.9759 -266.474 84.4511 -266.121 82.9258 C -260.922 61.1447 -251.46 41.4888 -238.188 23.5 C -237.61 22.6969 -237.033 21.8938 -236.438 21.0664 C -211.854 -11.4737 -175.788 -31.7339 -136.188 -39.5 C -135.511 -39.6328 -134.834 -39.7655 -134.137 -39.9023 C -85.8827 -48.7939 -36.1996 -31.9838 0 0 Z" fill="#1A3561" transform="matrix(1,0,0,1,1523.19,1430.5)"/><path d=" M 0 0 C 2.3319 0.0160871 4.66205 3.242e-05 6.9939 -0.019043 C 47.667 -0.0774228 84.1613 17.3934 113.898 44.3911 C 114.571 44.9918 115.244 45.5925 115.937 46.2114 C 142.33 71.1034 159.516 110.153 161.059 146.151 C 161.43 180.262 161.43 180.262 157.898 193.391 C 157.6 194.544 157.6 194.544 157.296 195.72 C 145.875 239.307 118.728 273.756 80.1482 296.645 C 62.5907 306.689 43.719 311.968 23.8982 315.391 C 22.7819 315.592 21.6655 315.793 20.5154 316 C 2.17535 317.981 -16.1913 316.578 -34.1018 312.391 C -34.8649 312.215 -35.6281 312.038 -36.4143 311.856 C -65.2462 304.905 -90.5562 288.477 -111.102 267.391 C -111.67 266.868 -112.239 266.344 -112.824 265.805 C -129.134 250.436 -139.637 229.191 -147.102 208.391 C -147.523 207.217 -147.945 206.042 -148.379 204.833 C -152.326 192.902 -154.566 179.946 -155.102 167.391 C -155.129 166.756 -155.156 166.121 -155.184 165.467 C -156.612 126.373 -145.245 87.09 -119.102 57.3911 C -118.395 56.5764 -117.689 55.7617 -116.961 54.9224 C -114.712 52.3746 -112.42 49.8764 -110.102 47.3911 C -109.366 46.5893 -108.63 45.7875 -107.871 44.9614 C -80.4612 16.2198 -39.4552 -0.321881 0 0 Z" fill="#1A3561" transform="matrix(1,0,0,1,1875.1,1660.61)"/><path d=" M 0 0 C 1.58594 1.625 1.58594 1.625 3.375 4 C 4.08012 4.91523 4.78523 5.83047 5.51172 6.77344 C 5.90537 7.28745 6.29901 7.80147 6.70459 8.33105 C 9.14365 11.4734 11.6723 14.5435 14.1875 17.625 C 15.314 19.0103 16.4403 20.3957 17.5664 21.7812 C 19.822 24.5539 22.0801 27.3244 24.3398 30.0938 C 40.6037 50.0415 40.6037 50.0415 48 60 C 46.4576 64.289 43.2057 66.4352 39.6875 69.0625 C 38.4137 70.0369 37.1416 71.0136 35.8711 71.9922 C 35.2251 72.4894 34.5791 72.9867 33.9136 73.499 C 30.9584 75.817 28.102 78.2446 25.25 80.6875 C 20.8188 84.4718 16.335 88.1716 11.7695 91.793 C 8.28631 94.5687 4.83014 97.3769 1.375 100.188 C 0.692039 100.743 0.00907715 101.298 -0.69458 101.871 C -2.09758 103.012 -3.50049 104.153 -4.90332 105.294 C -8.26763 108.031 -11.6339 110.765 -15 113.5 C -16.3333 114.583 -17.6667 115.667 -19 116.75 C -21.6667 118.917 -24.3333 121.083 -27 123.25 C -27.6602 123.786 -28.3205 124.323 -29.0007 124.876 C -30.3314 125.957 -31.6623 127.038 -32.9934 128.118 C -36.3684 130.859 -39.7399 133.603 -43.1055 136.355 C -50.0494 142.026 -57.0173 147.641 -64.1921 153.018 C -65.4783 153.99 -66.742 154.992 -68 156 C -68 156.33 -68 156.66 -68 157 C -67.3777 157.14 -66.7554 157.28 -66.1143 157.424 C -29.6524 165.747 5.469 181.16 26.625 213.75 C 42.3753 238.824 49.403 267.633 43 297 C 35.4105 325.883 15.3979 348.234 -8 366 C -10.555 368.046 -13.0894 370.117 -15.625 372.188 C -17.0128 373.317 -18.4009 374.446 -19.7891 375.574 C -20.4868 376.142 -21.1845 376.71 -21.9033 377.294 C -25.2676 380.031 -28.6339 382.766 -32 385.5 C -33.3333 386.583 -34.6667 387.667 -36 388.75 C -48 398.5 -48 398.5 -60 408.25 C -60.6602 408.786 -61.3203 409.323 -62.0005 409.875 C -63.3321 410.957 -64.6638 412.039 -65.9956 413.121 C -69.3567 415.85 -72.7155 418.583 -76.0703 421.32 C -82.3989 426.48 -88.7461 431.607 -95.1875 436.625 C -100.364 440.66 -105.403 444.83 -110.394 449.091 C -114.28 452.405 -118.23 455.62 -122.23 458.793 C -125.714 461.569 -129.17 464.377 -132.625 467.188 C -133.301 467.737 -133.976 468.287 -134.673 468.853 C -136.068 469.988 -137.464 471.124 -138.859 472.259 C -141.03 474.025 -143.202 475.788 -145.375 477.551 C -146.087 478.129 -146.799 478.707 -147.533 479.302 C -148.887 480.401 -150.241 481.5 -151.596 482.598 C -155.422 485.704 -159.221 488.838 -163 492 C -167.08 490.447 -169.378 487.537 -172.062 484.25 C -172.543 483.672 -173.023 483.094 -173.518 482.499 C -177.317 477.903 -181.002 473.22 -184.662 468.515 C -188.36 463.774 -192.165 459.13 -196 454.5 C -197.761 452.365 -199.52 450.23 -201.278 448.093 C -202.421 446.704 -203.565 445.317 -204.71 443.931 C -206.297 442.004 -207.869 440.066 -209.438 438.125 C -210.156 437.26 -210.156 437.26 -210.889 436.377 C -212.184 434.758 -212.184 434.758 -214 432 C -212.665 427.994 -210.007 426.443 -206.75 424 C -201.814 420.215 -196.975 416.359 -192.25 412.312 C -187.819 408.528 -183.335 404.828 -178.77 401.207 C -175.286 398.431 -171.83 395.623 -168.375 392.812 C -167.693 392.259 -167.012 391.705 -166.31 391.134 C -162.84 388.312 -159.372 385.488 -155.906 382.66 C -149.585 377.507 -143.246 372.387 -136.812 367.375 C -131.64 363.343 -126.604 359.177 -121.617 354.918 C -117.623 351.511 -113.556 348.21 -109.445 344.945 C -95.8709 334.146 -82.588 322.94 -70 311 C -69.4489 310.478 -68.8979 309.955 -68.3301 309.417 C -61.4042 302.802 -54.9483 296.279 -50 288 C -49.5308 287.225 -49.0616 286.451 -48.5781 285.652 C -42.3632 274.411 -40.5352 262.41 -44 250 C -49.2311 236.399 -57.4227 225.449 -70 218 C -70.7799 217.528 -71.5598 217.056 -72.3633 216.57 C -87.8929 207.979 -106.142 208.186 -122.84 212.75 C -135.72 216.527 -146.204 222.156 -157 230 C -157.982 230.71 -158.965 231.421 -159.977 232.152 C -163.013 234.398 -166.011 236.691 -169 239 C -169.988 239.758 -169.988 239.758 -170.995 240.531 C -181.479 248.578 -191.753 256.848 -201.925 265.284 C -210.258 272.175 -218.659 278.978 -227.188 285.625 C -232.364 289.66 -237.403 293.83 -242.394 298.091 C -246.28 301.405 -250.23 304.62 -254.23 307.793 C -257.029 310.023 -259.811 312.273 -262.588 314.531 C -263.946 315.636 -265.307 316.739 -266.668 317.84 C -270.294 320.776 -273.888 323.742 -277.445 326.762 C -278.527 327.669 -278.527 327.669 -279.63 328.595 C -281.02 329.762 -282.401 330.938 -283.772 332.126 C -284.712 332.91 -284.712 332.91 -285.672 333.711 C -286.219 334.178 -286.767 334.645 -287.331 335.126 C -289 336 -289 336 -291.016 335.851 C -293.417 334.821 -294.436 333.709 -296.066 331.676 C -296.91 330.638 -296.91 330.638 -297.77 329.579 C -298.362 328.831 -298.953 328.083 -299.562 327.312 C -300.182 326.545 -300.801 325.778 -301.439 324.987 C -305.683 319.712 -309.86 314.382 -314.019 309.039 C -317.589 304.47 -321.305 300.039 -325.071 295.63 C -329.159 290.839 -333.095 285.94 -337 281 C -337.733 280.123 -338.467 279.247 -339.223 278.344 C -341 276 -341 276 -341 274 C -338.973 272.277 -336.935 270.662 -334.812 269.062 C -329.858 265.255 -324.997 261.377 -320.25 257.312 C -315.821 253.531 -311.341 249.832 -306.777 246.215 C -303.246 243.399 -299.75 240.542 -296.25 237.688 C -291.146 233.527 -286.008 229.42 -280.812 225.375 C -275.636 221.34 -270.597 217.17 -265.606 212.909 C -261.72 209.595 -257.77 206.38 -253.77 203.207 C -250.286 200.431 -246.83 197.623 -243.375 194.812 C -242.692 194.257 -242.009 193.702 -241.305 193.129 C -239.902 191.988 -238.5 190.847 -237.097 189.706 C -233.732 186.969 -230.366 184.234 -227 181.5 C -225.667 180.417 -224.333 179.333 -223 178.25 C -204.333 163.083 -185.667 147.917 -167 132.75 C -166.34 132.214 -165.68 131.677 -165 131.125 C -163.668 130.043 -162.336 128.961 -161.004 127.879 C -157.643 125.15 -154.284 122.417 -150.93 119.68 C -144.601 114.52 -138.254 109.393 -131.812 104.375 C -126.636 100.34 -121.597 96.1698 -116.606 91.9092 C -112.72 88.5954 -108.77 85.3804 -104.77 82.207 C -101.286 79.4313 -97.8301 76.6231 -94.375 73.8125 C -93.692 73.2571 -93.0091 72.7017 -92.3054 72.1294 C -90.9024 70.9882 -89.4995 69.8469 -88.0967 68.7056 C -84.7324 65.9688 -81.3661 63.2345 -78 60.5 C -76.6667 59.4167 -75.3333 58.3333 -74 57.25 C -60.6667 46.4167 -47.3333 35.5833 -34 24.75 C -33.339 24.2129 -32.6779 23.6757 -31.9968 23.1223 C -30.6742 22.0478 -29.3515 20.9734 -28.0286 19.8992 C -24.53 17.0579 -21.0345 14.2131 -17.543 11.3633 C -16.814 10.769 -16.085 10.1748 -15.334 9.5625 C -13.9347 8.42165 -12.5362 7.27978 -11.1387 6.13672 C -10.509 5.62367 -9.87926 5.11062 -9.23047 4.58203 C -8.6777 4.13062 -8.12494 3.6792 -7.55542 3.21411 C -3.43776 0 -3.43776 0 0 0 Z" fill="#1A3561" transform="matrix(1,0,0,1,2916,412)"/><path d=" M 0 0 C 0.704755 -0.00067474 1.40951 -0.00134949 2.13562 -0.00204468 C 50.0699 0.0704106 91.7047 16.1664 125.684 50.0508 C 164.229 90.4548 168.875 139.584 168.875 193.25 C 43.64 190.775 43.64 190.775 -84.125 188.25 C -81.297 201.623 -81.297 201.623 -76.5 214 C -76.1615 214.694 -75.8231 215.388 -75.4744 216.103 C -65.5386 235.676 -48.7845 249.032 -28.1133 255.996 C -26.7856 256.419 -25.4562 256.838 -24.125 257.25 C -22.4756 257.762 -22.4756 257.762 -20.793 258.285 C -3.55376 262.6 17.8577 262.416 34.875 257.25 C 36.021 256.91 37.167 256.569 38.3477 256.219 C 53.2935 251.32 67.6834 243.442 78.875 232.25 C 83.0617 232.606 86.4172 234.339 90.134 236.209 C 90.7395 236.512 91.3449 236.814 91.9687 237.126 C 93.9573 238.121 95.9415 239.125 97.9258 240.129 C 99.3084 240.823 100.691 241.517 102.075 242.21 C 105.705 244.031 109.333 245.859 112.959 247.689 C 116.664 249.557 120.372 251.418 124.08 253.279 C 131.348 256.93 138.613 260.587 145.875 264.25 C 142.971 277.502 125.287 291.333 114.875 299.25 C 113.566 300.265 113.566 300.265 112.23 301.301 C 72.9369 330.929 21.823 336.861 -25.8516 330.293 C -41.0562 327.924 -56.1888 323.839 -70.125 317.25 C -70.8564 316.905 -71.5878 316.56 -72.3413 316.204 C -109.084 298.537 -138.617 267.015 -152.462 228.482 C -156.624 216.28 -159.357 204.01 -161.125 191.25 C -161.276 190.172 -161.427 189.095 -161.582 187.984 C -161.895 185.063 -162.04 182.187 -162.125 179.25 C -162.164 178.155 -162.164 178.155 -162.203 177.038 C -163.46 137.072 -154.862 94.9667 -129.125 63.25 C -128.152 61.9777 -128.152 61.9777 -127.16 60.6797 C -101.415 27.7916 -65.3465 7.33904 -24.125 1.25 C -23.1727 1.10861 -23.1727 1.10861 -22.2012 0.964355 C -14.8299 0.00070678 -7.42334 0.00641105 0 0 Z M -25.125 72.25 C -26.8594 72.7759 -26.8594 72.7759 -28.6289 73.3125 C -51.6901 81.3048 -66.9182 98.6759 -77.9805 119.738 C -79.2632 122.093 -79.2632 122.093 -79.125 124.25 C -74.6431 124.951 -70.2931 125.394 -65.7588 125.484 C -64.5241 125.511 -63.2894 125.537 -62.0173 125.565 C -60.6671 125.59 -59.3168 125.614 -57.9666 125.639 C -56.5301 125.668 -55.0937 125.698 -53.6573 125.728 C -49.7685 125.808 -45.8797 125.883 -41.9908 125.957 C -37.9053 126.036 -33.82 126.119 -29.7346 126.201 C -22.8677 126.34 -16.0006 126.474 -9.13354 126.607 C -0.356468 126.777 8.4205 126.952 17.1974 127.128 C 24.7804 127.281 32.3634 127.431 39.9464 127.581 C 42.3642 127.629 44.782 127.677 47.1997 127.725 C 51.0238 127.801 54.848 127.876 58.6721 127.949 C 60.0644 127.976 61.4566 128.003 62.8488 128.031 C 71.8596 128.212 80.8626 128.282 89.875 128.25 C 83.2224 105.641 68.9949 89.2154 48.625 77.9375 C 26.2147 66.0881 -1.11393 64.9273 -25.125 72.25 Z" fill="#1A3561" transform="matrix(1,0,0,1,1698.12,-0.25)"/><path d=" M 0 0 C 0.760547 0.648398 1.52109 1.2968 2.30469 1.96484 C 3.08586 2.62355 3.86703 3.28227 4.67188 3.96094 C 18.9815 16.3193 29.6714 31.7517 37.3047 48.9648 C 37.7868 50.0425 38.2689 51.1202 38.7656 52.2305 C 45.5184 68.5191 47.1572 85.5246 48.3047 102.965 C 48.9199 102.323 49.5351 101.682 50.1689 101.021 C 52.455 98.65 54.7519 96.2904 57.0571 93.9377 C 58.0529 92.9168 59.0442 91.8914 60.0308 90.8616 C 61.449 89.3828 62.8826 87.9207 64.3203 86.4609 C 65.6086 85.1334 65.6086 85.1334 66.9229 83.7791 C 69.3047 81.9648 69.3047 81.9648 71.1316 82.0557 C 74.2286 83.3514 76.0736 85.3361 78.4563 87.6965 C 78.9559 88.1877 79.4555 88.6788 79.9703 89.1849 C 81.617 90.8082 83.2523 92.4425 84.8867 94.0781 C 86.0265 95.2108 87.1666 96.3433 88.3071 97.4754 C 90.6936 99.8485 93.0741 102.227 95.4509 104.61 C 98.5021 107.667 101.571 110.706 104.645 113.739 C 107.004 116.072 109.35 118.416 111.694 120.763 C 112.821 121.889 113.952 123.01 115.088 124.127 C 116.671 125.688 118.237 127.264 119.8 128.845 C 120.696 129.739 121.592 130.633 122.516 131.554 C 124.305 133.965 124.305 133.965 124.128 135.88 C 123.121 138.431 121.85 139.797 119.913 141.739 C 118.817 142.85 118.817 142.85 117.698 143.982 C 116.886 144.788 116.075 145.594 115.239 146.425 C 113.956 147.718 113.956 147.718 112.646 149.036 C 110.267 151.429 107.882 153.815 105.493 156.198 C 102.92 158.768 100.355 161.348 97.7895 163.926 C 92.7609 168.975 87.7241 174.017 82.6841 179.055 C 78.5895 183.148 74.4975 187.244 70.4073 191.342 C 69.2303 192.521 68.0534 193.7 66.8764 194.879 C 66.2906 195.466 65.7048 196.052 65.1013 196.657 C 54.0182 207.759 42.9251 218.851 31.8291 229.94 C 21.6685 240.095 11.5212 250.263 1.38003 260.438 C -9.02476 270.876 -19.4387 281.305 -29.8627 291.725 C -35.7182 297.578 -41.5699 303.435 -47.4118 309.302 C -52.3839 314.295 -57.3645 319.279 -62.3565 324.252 C -64.9051 326.791 -67.4494 329.335 -69.9831 331.889 C -72.7249 334.653 -75.4856 337.397 -78.2486 340.14 C -79.0534 340.957 -79.8581 341.774 -80.6873 342.616 C -81.4262 343.343 -82.165 344.07 -82.9263 344.819 C -83.5621 345.456 -84.198 346.092 -84.8531 346.747 C -86.6953 347.965 -86.6953 347.965 -88.7774 347.792 C -91.7728 346.5 -93.6338 344.384 -95.9229 342.078 C -96.4306 341.571 -96.9384 341.063 -97.4615 340.54 C -99.1352 338.865 -100.798 337.179 -102.461 335.492 C -103.62 334.327 -104.781 333.163 -105.941 331.999 C -108.993 328.936 -112.035 325.865 -115.075 322.791 C -118.18 319.655 -121.294 316.528 -124.406 313.4 C -130.511 307.263 -136.606 301.117 -142.695 294.965 C -139.578 291.28 -136.479 287.618 -133.047 284.219 C -132.435 283.61 -131.822 283.001 -131.191 282.373 C -130.574 281.764 -129.956 281.155 -129.32 280.527 C -128.68 279.891 -128.039 279.255 -127.379 278.6 C -125.82 277.052 -124.259 275.507 -122.695 273.965 C -125.424 272.601 -128.117 272.615 -131.118 272.37 C -166.516 269.45 -197.095 254.755 -220.695 227.965 C -240.024 204.832 -251.736 176.261 -252.695 145.965 C -252.716 145.336 -252.736 144.707 -252.757 144.06 C -254.043 97.976 -237.398 57.6695 -206.072 24.2324 C -199.072 16.8995 -191.77 10.1151 -183.695 3.96484 C -182.651 3.16563 -181.607 2.36641 -180.531 1.54297 C -167.126 -8.48529 -152.52 -16.5352 -136.695 -22.0352 C -136.048 -22.2604 -135.401 -22.4857 -134.734 -22.7178 C -89.1097 -38.2471 -37.3206 -30.8966 0 0 Z M -111.695 50.9648 C -113.242 51.4734 -113.242 51.4734 -114.82 51.9922 C -138.102 60.6919 -159.236 81.5853 -169.695 103.965 C -178.169 125.514 -180.495 149.004 -171.117 170.738 C -167.846 177.855 -163.771 184.023 -158.695 189.965 C -157.953 190.955 -157.21 191.945 -156.445 192.965 C -144.667 206.763 -125.687 216.73 -107.695 218.965 C -82.7823 220.638 -60.8986 214.251 -41.6953 197.965 C -40.7002 197.132 -39.705 196.299 -38.6797 195.441 C -18.9797 178.466 -6.46219 156.182 -4.47266 130.039 C -4.07026 117.11 -6.92639 104.503 -12.6953 92.9648 C -13.1877 91.98 -13.6802 90.9952 -14.1875 89.9805 C -18.5971 81.8365 -24.2024 75.467 -30.6953 68.9648 C -31.4262 68.2223 -32.1571 67.4798 -32.9102 66.7148 C -48.6967 51.6632 -68.9172 46.3994 -90.2148 46.6836 C -97.7597 46.9457 -104.56 48.5943 -111.695 50.9648 Z" fill="#1A3561" transform="matrix(1,0,0,1,627.695,2670.04)"/><path d=" M 0 0 C 0.510146 0.425068 1.02029 0.850137 1.5459 1.28809 C 28.349 23.8761 43.4535 57.199 46.5903 91.7668 C 48.7598 120.412 41.0512 146.317 27 171 C 27.797 170.788 28.5939 170.576 29.415 170.357 C 33.0254 169.4 36.6376 168.45 40.25 167.5 C 41.5043 167.166 42.7585 166.832 44.0508 166.488 C 45.8587 166.015 45.8587 166.015 47.7031 165.531 C 48.8133 165.238 49.9235 164.945 51.0674 164.643 C 54 164 54 164 58 164 C 60.0544 172.171 62.1062 180.343 64.1548 188.516 C 65.1063 192.311 66.0587 196.107 67.0132 199.902 C 67.936 203.571 68.8565 207.241 69.7753 210.912 C 70.1245 212.305 70.4745 213.698 70.8254 215.09 C 72.7408 222.695 74.5718 230.287 76 238 C 62.8889 241.735 49.7127 245.111 36.4688 248.34 C 34.362 248.856 32.2553 249.372 30.1486 249.888 C 25.6314 250.995 21.1138 252.1 16.5958 253.204 C 9.38065 254.966 2.16643 256.733 -5.04761 258.5 C -7.54893 259.112 -10.0503 259.725 -12.5516 260.338 C -14.4356 260.799 -14.4356 260.799 -16.3576 261.27 C -19.5813 262.06 -22.805 262.849 -26.0288 263.638 C -45.6746 268.447 -65.3169 273.27 -84.957 278.102 C -86.3289 278.439 -87.7007 278.777 -89.0726 279.114 C -99.7814 281.748 -110.49 284.384 -121.199 287.019 C -137.729 291.087 -154.259 295.152 -170.791 299.212 C -173.99 299.998 -177.19 300.784 -180.39 301.571 C -185.327 302.785 -190.264 303.996 -195.202 305.206 C -196.994 305.645 -198.786 306.085 -200.577 306.525 C -202.994 307.12 -205.411 307.712 -207.829 308.302 C -208.535 308.477 -209.241 308.651 -209.969 308.831 C -214.772 310 -214.772 310 -217 310 C -220.976 296.154 -224.505 282.209 -227.931 268.218 C -228.823 264.581 -229.723 260.947 -230.623 257.312 C -231.193 254.992 -231.763 252.672 -232.332 250.352 C -232.601 249.269 -232.869 248.187 -233.146 247.072 C -233.39 246.069 -233.634 245.067 -233.886 244.034 C -234.102 243.155 -234.318 242.277 -234.54 241.372 C -235 239 -235 239 -235 235 C -230.918 233.993 -226.835 232.995 -222.75 232 C -221.591 231.714 -220.432 231.428 -219.238 231.133 C -217.566 230.727 -217.566 230.727 -215.859 230.312 C -214.833 230.061 -213.807 229.81 -212.749 229.551 C -210 229 -210 229 -206 229 C -206 228.34 -206 227.68 -206 227 C -207.05 226.642 -207.05 226.642 -208.121 226.277 C -232.022 215.673 -250.059 188.923 -259.621 165.707 C -263.573 155.083 -266.625 144.271 -268 133 C -268.111 132.102 -268.222 131.203 -268.336 130.277 C -272.389 92.2132 -259.368 55.184 -235.562 25.625 C -205.814 -10.2439 -162.96 -29.8247 -116.838 -34.5332 C -74.3985 -38.1166 -32.9068 -27.7253 0 0 Z M -132 46 C -132.684 46.209 -133.367 46.418 -134.071 46.6333 C -156.617 53.7624 -175.655 67.9908 -187.055 88.939 C -197.215 108.822 -198.307 129.31 -191.898 150.672 C -184.931 171.26 -172.453 186.592 -153.492 197.328 C -128.954 209.076 -101.981 208.716 -76.551 199.878 C -53.5904 191.452 -36.4798 176.573 -25.75 154.562 C -16.8475 134.139 -18.0434 111.989 -25.3203 91.2344 C -28.4747 83.2707 -32.6505 76.6598 -38 70 C -38.6084 69.184 -39.2169 68.368 -39.8438 67.5273 C -51.7888 53.5266 -70.9467 44.2462 -89 42 C -103.759 41.1782 -117.835 41.6093 -132 46 Z" fill="#1A3561" transform="matrix(1,0,0,1,269,2007)"/><path d=" M 0 0 C 1.66403 1.48777 3.30448 2.99727 4.93726 4.51929 C 5.8968 5.41309 5.8968 5.41309 6.87573 6.32495 C 39.4536 37.0297 57.7157 77.8076 59.9373 122.519 C 59.9966 123.659 60.0559 124.798 60.1169 125.972 C 61.1543 170.925 43.5015 212.15 13.0271 244.652 C -7.99835 266.576 -36.4417 282.433 -65.6877 290.269 C -66.4268 290.468 -67.1658 290.667 -67.9272 290.872 C -80.1276 293.978 -92.1519 294.897 -104.688 294.832 C -105.811 294.829 -105.811 294.829 -106.957 294.825 C -118.552 294.772 -129.759 294.265 -141.063 291.519 C -141.879 291.326 -142.695 291.133 -143.536 290.933 C -176.897 282.793 -209.19 265.533 -231.063 238.519 C -231.81 237.609 -232.558 236.699 -233.328 235.761 C -249.319 215.698 -261.707 192.428 -268.063 167.519 C -268.272 166.721 -268.48 165.923 -268.696 165.1 C -274.736 140.986 -274.276 113.531 -268.063 89.5193 C -267.848 88.6727 -267.634 87.8261 -267.413 86.9539 C -258.387 52.2035 -238.963 19.3123 -210.063 -2.48071 C -209.052 -3.26833 -208.041 -4.05595 -207 -4.86743 C -147.861 -49.8931 -56.6752 -49.1669 0 0 Z M -168.063 61.5193 C -169.221 62.5344 -169.221 62.5344 -170.403 63.5701 C -184.937 77.1607 -193.336 97.1697 -194.449 116.906 C -194.961 133.168 -192.198 147.811 -185.063 162.519 C -184.784 163.099 -184.506 163.678 -184.219 164.276 C -172.326 188.737 -153.923 207.256 -128.063 216.519 C -107.581 223.569 -85.3964 220.045 -66.2961 210.865 C -44.9063 200.007 -30.0695 183.079 -22.0627 160.519 C -14.5583 136.406 -18.6064 112.222 -29.9858 90.1763 C -35.7503 79.3379 -42.4361 70.2253 -51.0627 61.5193 C -51.8671 60.702 -52.6715 59.8848 -53.5002 59.0427 C -69.2528 43.9638 -90.5656 36.9014 -112.172 37.2732 C -133.178 38.6019 -152.357 47.7279 -168.063 61.5193 Z" fill="#1A3561" transform="matrix(1,0,0,1,1063.06,220.481)"/><path d=" M 0 0 C 1.09024 0.00323273 1.09024 0.00323273 2.20251 0.00653076 C 13.3237 0.0593723 23.9949 0.584013 34.8125 3.3125 C 35.6145 3.50586 36.4164 3.69922 37.2427 3.89844 C 67.0393 11.2246 93.5257 25.1826 115.812 46.3125 C 117.249 47.6525 117.249 47.6525 118.715 49.0195 C 148.349 77.2148 164.248 118.878 165.812 159.312 C 165.874 160.68 165.874 160.68 165.938 162.074 C 166.916 204.948 151.765 247.713 122.1 278.917 C 120.677 280.388 119.245 281.85 117.812 283.312 C 117.055 284.121 116.297 284.929 115.516 285.762 C 105.415 296.323 93.5134 304.243 80.8125 311.312 C 80.2063 311.655 79.6001 311.998 78.9756 312.351 C 56.8731 324.69 31.0908 331.512 5.8125 332.312 C 4.91789 332.352 4.02328 332.392 3.10156 332.434 C -38.5411 333.425 -80.5994 318.826 -111.188 290.312 C -111.827 289.717 -112.467 289.121 -113.126 288.507 C -144.406 259.025 -165.207 217.633 -167.188 174.312 C -167.24 173.196 -167.293 172.08 -167.348 170.93 C -168.45 124.235 -149.245 80.62 -117.375 47.1875 C -86.5331 17.4091 -42.6964 -0.228499 0 0 Z M -72.875 115.125 C -85.5505 129.611 -93.2586 150.199 -92.4688 169.617 C -89.7836 195.35 -79.967 217.564 -60.3477 234.809 C -42.1274 249.311 -19.2101 255.231 3.85107 253.126 C 25.9526 250.42 47.4029 240.213 63.8125 225.312 C 64.5047 224.713 65.197 224.114 65.9102 223.496 C 81.1225 209.493 89.4562 189.153 91.0938 168.82 C 91.7444 144.908 82.5367 120.835 66.1018 103.459 C 50.0639 87.2667 29.0452 78.7978 6.375 78.0625 C -24.263 78.4098 -52.1814 93.2389 -72.875 115.125 Z" fill="#1A3561" transform="matrix(1,0,0,1,2986.19,858.688)"/><path d=" M 0 0 C 1.63661 1.52934 3.26051 3.07233 4.875 4.625 C 5.40303 5.12193 5.93106 5.61887 6.4751 6.13086 C 26.9052 25.4148 41.2147 49.0276 49.125 76 C 49.4763 77.1828 49.4763 77.1828 49.8347 78.3894 C 53.7207 92.3519 55.3847 106.339 55.2661 120.802 C 55.25 123.125 55.2661 125.447 55.2852 127.77 C 55.3061 142.116 53.308 156.159 49.25 169.938 C 48.8715 171.233 48.8715 171.233 48.4854 172.554 C 35.1323 216.455 5.91657 250.684 -34.25 272.312 C -57.9055 284.652 -83.4231 289.855 -109.938 289.875 C -110.722 289.876 -111.506 289.876 -112.313 289.877 C -124.162 289.861 -135.556 289.398 -147.125 286.625 C -147.853 286.459 -148.581 286.292 -149.332 286.121 C -187.95 277.103 -221.616 254.359 -245.125 222.625 C -245.772 221.753 -245.772 221.753 -246.431 220.863 C -272.28 185.429 -281.583 138.652 -275.125 95.625 C -269.399 63.9666 -255.029 35.226 -233.125 11.625 C -232.543 10.9935 -231.96 10.362 -231.36 9.71143 C -221.873 -0.461831 -211.887 -8.94772 -200.125 -16.375 C -199.476 -16.7883 -198.827 -17.2016 -198.158 -17.6274 C -136.392 -56.3016 -53.8976 -47.4476 0 0 Z M -178.125 65.625 C -178.761 66.1986 -179.396 66.7723 -180.051 67.3633 C -193.825 80.1602 -201.176 99.8968 -202.363 118.324 C -202.761 139.717 -197.845 160.741 -184.125 177.625 C -183.459 178.454 -182.792 179.283 -182.105 180.137 C -168.327 196.348 -148.229 206.924 -127.125 209.625 C -98.5206 211.305 -69.806 206 -47.543 186.789 C -46.745 186.075 -45.9471 185.361 -45.125 184.625 C -44.5024 184.096 -43.8798 183.568 -43.2383 183.023 C -33.9869 174.613 -27.0039 162.372 -23.125 150.625 C -22.8079 149.716 -22.4908 148.807 -22.1641 147.871 C -16.1764 127.244 -19.1743 101.598 -29.125 82.625 C -41.1036 61.9639 -59.0598 47.5212 -81.9082 40.7222 C -115.315 31.9205 -153.545 41.7413 -178.125 65.625 Z" fill="#1A3561" transform="matrix(1,0,0,1,3207.12,1283.38)"/><path d=" M 0 0 C 1.14878 0.00081573 1.14878 0.00081573 2.32077 0.00164795 C 14.8859 0.0425282 26.7859 0.954441 38.9375 4.375 C 39.7129 4.58931 40.4882 4.80361 41.2871 5.02441 C 64.4948 11.6401 85.2992 24.0236 102.938 40.375 C 103.842 41.209 104.747 42.043 105.68 42.9023 C 128.687 65.0139 141.717 94.3678 150.938 124.375 C 151.157 125.073 151.376 125.771 151.602 126.49 C 152.565 129.663 152.938 132.002 152.938 135.375 C 130.236 142.838 107.331 149.637 84.4444 156.504 C 78.8229 158.191 73.202 159.88 67.5811 161.569 C 60.562 163.677 53.5428 165.785 46.5232 167.892 C 32.0729 172.23 17.6252 176.576 3.17964 180.929 C -4.96884 183.385 -13.1182 185.838 -21.2679 188.289 C -26.8376 189.965 -32.4069 191.642 -37.9753 193.323 C -43.1883 194.896 -48.4024 196.465 -53.6175 198.031 C -55.5325 198.607 -57.447 199.184 -59.3611 199.763 C -61.9652 200.55 -64.5707 201.332 -67.1768 202.113 C -68.3208 202.461 -68.3208 202.461 -69.488 202.816 C -72.4519 203.699 -74.9512 204.375 -78.0625 204.375 C -66.1879 225.972 -50.8366 240.067 -27.3398 247.465 C -3.34201 254.129 23.3703 248.139 44.7837 236.359 C 62.0131 226.501 73.2822 213.119 83.9375 196.375 C 106.707 199.675 129.477 202.975 152.938 206.375 C 154.621 213.11 150.677 219.224 147.938 225.375 C 147.502 226.36 147.502 226.36 147.057 227.364 C 130.999 263.004 100.91 288.958 64.9375 303.375 C 48.6874 309.492 32.1783 314.922 14.9375 317.375 C 14.2766 317.473 13.6157 317.571 12.9348 317.672 C -20.2535 322.008 -52.7503 316.345 -82.0625 300.375 C -83.1208 299.809 -84.1791 299.243 -85.2695 298.66 C -107.748 286.14 -126.056 267.446 -139.062 245.375 C -139.438 244.74 -139.813 244.105 -140.199 243.451 C -155.71 216.75 -163.509 185.927 -163.375 155.125 C -163.373 154.453 -163.371 153.782 -163.369 153.09 C -163.319 141.956 -162.636 131.225 -160.062 120.375 C -159.896 119.668 -159.73 118.961 -159.559 118.233 C -150.309 80.5082 -126.084 45.9262 -92.9595 25.5229 C -64.9532 8.575 -32.6738 -0.087834 0 0 Z M -73.4219 95.8164 C -84.5733 108.934 -92.1989 128.018 -92.0625 145.375 C -83.75 143.955 -75.796 141.6 -67.75 139.113 C -66.3534 138.686 -64.9567 138.258 -63.5598 137.832 C -60.5964 136.926 -57.6338 136.016 -54.6719 135.105 C -50.0222 133.674 -45.3705 132.25 -40.7183 130.828 C -39.9422 130.59 -39.1662 130.353 -38.3666 130.109 C -36.7975 129.629 -35.2284 129.149 -33.6593 128.669 C -31.3025 127.949 -28.9458 127.227 -26.5891 126.506 C -9.93282 121.409 6.75218 116.409 23.4415 111.421 C 26.1187 110.62 28.7953 109.816 31.4717 109.013 C 35.4277 107.825 39.3875 106.65 43.3486 105.479 C 45.4643 104.849 47.5798 104.217 49.6953 103.586 C 50.6904 103.294 51.6854 103.003 52.7107 102.702 C 53.6274 102.427 54.5442 102.152 55.4888 101.869 C 56.301 101.628 57.1133 101.387 57.9502 101.139 C 60.1265 100.457 60.1265 100.457 61.9375 98.375 C 49.4188 80.6865 32.3094 70.3004 11.25 65.8008 C -20.7645 61.6857 -51.0275 72.6434 -73.4219 95.8164 Z" fill="#1A3561" transform="matrix(1,0,0,1,1963.06,3003.62)"/><path d=" M 0 0 C 9.84783 8.52591 16.897 18.5166 23.0625 29.9375 C 23.4861 30.7082 23.9097 31.4789 24.3462 32.2729 C 32.8175 48.7015 36.9297 67.3595 41.2695 85.2031 C 41.8154 87.4195 42.3621 89.6357 42.9094 91.8517 C 44.359 97.7293 45.7983 103.609 47.2355 109.49 C 48.7317 115.604 50.2376 121.716 51.7427 127.828 C 54.1481 137.601 56.5485 147.375 58.9448 157.15 C 61.9202 169.286 64.9108 181.417 67.9102 193.547 C 68.331 195.249 68.7518 196.952 69.1726 198.654 C 69.7749 201.091 70.3772 203.528 70.9795 205.965 C 73.8275 217.486 76.6742 229.008 79.4945 240.537 C 80.0339 242.738 80.5753 244.939 81.1188 247.139 C 81.8476 250.091 82.5694 253.045 83.2891 256 C 83.4985 256.842 83.7079 257.683 83.9237 258.55 C 84.1095 259.32 84.2953 260.09 84.4868 260.883 C 84.6478 261.539 84.8087 262.195 84.9745 262.872 C 85.3726 265.231 85.3673 267.487 85.3125 269.875 C 75.8649 272.227 66.4161 274.575 56.9657 276.916 C 52.5776 278.003 48.1899 279.092 43.8032 280.185 C 39.5703 281.239 35.3362 282.289 31.1013 283.336 C 29.4854 283.736 27.8698 284.138 26.2547 284.541 C 23.9935 285.106 21.7308 285.665 19.4678 286.223 C 18.7996 286.391 18.1313 286.559 17.4429 286.733 C 14.2493 287.513 11.6356 287.875 8.3125 287.875 C 8.05988 286.852 7.80727 285.829 7.547 284.775 C 1.65936 260.934 -4.23514 237.094 -10.1385 213.256 C -12.6931 202.94 -15.2446 192.622 -17.7857 182.303 C -19.2178 176.487 -20.6549 170.673 -22.0963 164.86 C -22.8954 161.636 -23.6913 158.412 -24.4822 155.187 C -27.8092 141.623 -31.3811 128.164 -35.3828 114.785 C -35.751 113.551 -36.1192 112.318 -36.4985 111.046 C -42.0476 92.7677 -48.601 72.7333 -66.0625 62.4805 C -78.6661 55.8136 -91.6183 55.1602 -105.398 58.7812 C -122.156 64.3538 -133.655 74.1952 -141.688 89.875 C -151 109.74 -151.555 130.203 -147.668 151.445 C -147.449 152.65 -147.231 153.855 -147.006 155.096 C -144.256 169.776 -140.672 184.252 -137.075 198.742 C -136.092 202.71 -135.121 206.681 -134.149 210.651 C -130.392 225.975 -126.589 241.288 -122.766 256.596 C -121.283 262.534 -119.806 268.474 -118.329 274.413 C -117.12 279.271 -115.902 284.127 -114.676 288.981 C -113.919 291.987 -113.17 294.994 -112.423 298.002 C -112.074 299.397 -111.723 300.792 -111.367 302.185 C -110.883 304.086 -110.412 305.99 -109.941 307.894 C -109.673 308.959 -109.405 310.024 -109.129 311.121 C -108.699 313.805 -108.787 315.342 -109.688 317.875 C -119.135 320.227 -128.584 322.575 -138.034 324.916 C -142.422 326.003 -146.81 327.092 -151.197 328.185 C -155.43 329.239 -159.664 330.289 -163.899 331.336 C -165.515 331.736 -167.13 332.138 -168.745 332.541 C -171.007 333.106 -173.269 333.665 -175.532 334.223 C -176.2 334.391 -176.869 334.559 -177.557 334.733 C -180.751 335.513 -183.364 335.875 -186.688 335.875 C -195.664 300.077 -204.614 264.273 -213.438 228.438 C -213.618 227.703 -213.799 226.968 -213.986 226.212 C -214.916 222.433 -215.846 218.653 -216.777 214.874 C -216.965 214.111 -217.152 213.349 -217.346 212.563 C -217.728 211.011 -218.11 209.459 -218.492 207.907 C -222.859 190.166 -227.245 172.429 -231.632 154.693 C -233.268 148.078 -234.901 141.463 -236.534 134.847 C -237.453 131.129 -238.371 127.41 -239.289 123.691 C -239.515 122.778 -239.74 121.865 -239.973 120.924 C -242.841 109.31 -245.726 97.7007 -248.631 86.0959 C -250.061 80.3792 -251.486 74.6611 -252.909 68.9426 C -254.035 64.4194 -255.17 59.8984 -256.31 55.3789 C -257 52.6355 -257.683 49.8903 -258.363 47.1445 C -258.826 45.2868 -259.298 43.4316 -259.77 41.5764 C -260.041 40.4789 -260.311 39.3815 -260.59 38.2507 C -260.827 37.3023 -261.065 36.3538 -261.31 35.3766 C -261.694 32.8349 -261.511 31.2852 -260.688 28.875 C -251.24 26.5226 -241.791 24.1752 -232.341 21.8343 C -227.953 20.7471 -223.565 19.6583 -219.178 18.5654 C -214.945 17.511 -210.711 16.4611 -206.476 15.4143 C -204.86 15.014 -203.245 14.6121 -201.63 14.2085 C -199.368 13.6438 -197.106 13.0849 -194.843 12.5273 C -193.84 12.2749 -193.84 12.2749 -192.818 12.0173 C -189.624 11.2368 -187.011 10.875 -183.688 10.875 C -181.378 19.785 -179.068 28.695 -176.688 37.875 C -176.027 37.875 -175.367 37.875 -174.688 37.875 C -173.054 36.1031 -173.054 36.1031 -171.312 33.75 C -148.254 4.32327 -120.96 -16.9572 -82.957 -22.6875 C -53.3812 -26.1579 -23.237 -19.0714 0 0 Z" fill="#1A3561" transform="matrix(1,0,0,1,1406.69,59.125)"/><path d=" M 0 0 C 0.721442 0.00215515 1.44288 0.0043103 2.18619 0.00653076 C 13.9592 0.0627422 25.3657 0.695035 36.875 3.3125 C 37.7512 3.51118 38.6275 3.70985 39.5303 3.91455 C 90.068 15.7885 135.698 47.876 163.442 91.7961 C 175.235 111.051 182.251 132.11 185.875 154.312 C 185.984 154.974 186.093 155.636 186.205 156.317 C 186.929 161.587 186.922 166.815 186.899 172.123 C 186.898 172.911 186.896 173.699 186.894 174.512 C 186.889 176.445 186.882 178.379 186.875 180.312 C 177.556 179.29 168.238 178.264 158.919 177.235 C 154.593 176.757 150.266 176.28 145.938 175.806 C 141.763 175.348 137.587 174.887 133.412 174.425 C 131.819 174.249 130.225 174.074 128.632 173.9 C 126.401 173.656 124.169 173.409 121.938 173.16 C 120.668 173.021 119.398 172.881 118.089 172.736 C 115.597 172.408 113.285 172.004 110.875 171.312 C 110.656 170.127 110.437 168.941 110.211 167.719 C 104.267 136.853 89.8731 113.671 63.6289 95.7031 C 57.379 91.6038 50.6682 88.3993 43.875 85.3125 C 42.9585 84.891 42.042 84.4695 41.0977 84.0352 C 19.6869 74.8393 -4.93702 75.3315 -26.4756 83.7744 C -37.4935 88.4056 -46.5953 95.0092 -55.125 103.312 C -55.7605 103.898 -56.396 104.483 -57.0508 105.086 C -61.8687 109.637 -65.5561 114.745 -69.125 120.312 C -70.1189 121.857 -70.1189 121.857 -71.1328 123.434 C -83.2014 143.28 -87.8978 166.654 -82.4375 189.5 C -80.7184 196.13 -78.3592 202.279 -75.125 208.312 C -74.3883 209.755 -74.3883 209.755 -73.6367 211.227 C -69.2038 219.415 -63.5736 225.71 -57.125 232.312 C -56.5411 232.958 -55.9571 233.604 -55.3555 234.27 C -41.446 249.306 -20.7235 259.37 -1.125 264.312 C -0.222656 264.556 0.679688 264.8 1.60938 265.051 C 13.6005 267.788 27.4993 267.288 39.4648 264.75 C 41.9873 264.292 44.3171 264.283 46.875 264.312 C 47.0997 264.928 47.3244 265.544 47.5559 266.179 C 49.9241 272.67 52.2933 279.16 54.6631 285.65 C 55.5439 288.063 56.4244 290.476 57.3047 292.889 C 58.5801 296.384 59.8564 299.88 61.1328 303.375 C 61.7512 305.071 61.7512 305.071 62.3821 306.802 C 64.1675 311.69 65.9626 316.573 67.8311 321.43 C 68.1162 322.173 68.4014 322.917 68.6953 323.683 C 69.4273 325.582 70.168 327.477 70.9097 329.371 C 71.875 332.312 71.875 332.312 71.875 336.312 C 22.3112 348.964 -23.8239 343.141 -68.125 317.312 C -83.4618 307.957 -97.6752 297.114 -110.662 284.708 C -111.636 283.779 -112.616 282.855 -113.6 281.936 C -143.906 253.607 -161.494 214.832 -163.246 173.453 C -164.657 129.434 -151.638 87.0968 -121.188 54.5312 C -119.351 52.5551 -117.647 50.523 -115.938 48.4375 C -102.711 33.3567 -85.2029 22.5619 -67.125 14.3125 C -66.4524 14.0018 -65.7799 13.6912 -65.0869 13.3711 C -44.4166 3.94774 -22.679 -0.122719 0 0 Z" fill="#1A3561" transform="matrix(1,0,0,1,2499.12,265.688)"/><path d=" M 0 0 C 1.05139 0.313484 1.05139 0.313484 2.12402 0.633301 C 34.8073 10.5452 61.8764 32.9952 78.168 62.9258 C 89 83.4788 89 83.4788 89 93 C 81.8558 96.0817 74.7099 99.1595 67.5618 102.232 C 64.242 103.659 60.9227 105.088 57.6047 106.52 C 54.3966 107.904 51.1869 109.285 47.9761 110.663 C 46.1689 111.44 44.3633 112.22 42.5578 113.001 C 36.4383 115.624 30.3539 118.008 24 120 C 23.5269 119.007 23.0538 118.015 22.5664 116.992 C 13.2992 97.836 3.18908 79.579 -17.7734 71.7266 C -25.2818 69.2765 -32.9404 68.8208 -40.3125 72.0312 C -44.2822 74.3102 -46.0396 77.5395 -47.4375 81.75 C -48.6654 87.7107 -46.5718 92.3521 -43.5508 97.4414 C -39.2748 103.811 -34.195 109.378 -29 115 C -27.828 116.329 -26.6609 117.662 -25.5 119 C -22.9135 121.974 -20.2781 124.898 -17.625 127.812 C -13.6491 132.214 -9.89197 136.76 -6.16797 141.375 C -4.26178 143.683 -2.28951 145.873 -0.25 148.062 C 22.6974 173.712 35.395 201.307 34.1909 235.875 C 33.4014 248.799 28.7376 260.522 23 272 C 22.465 273.071 21.9301 274.142 21.3789 275.246 C 17.0403 283.247 11.3794 289.612 5 296 C 4.19562 296.816 3.39125 297.632 2.5625 298.473 C -16.1322 316.399 -41.5416 322.546 -66.7419 322.42 C -77.1958 322.195 -86.9395 320.811 -97 318 C -97.8472 317.764 -98.6945 317.528 -99.5674 317.285 C -118.663 311.782 -136.449 303.442 -152 291 C -152.595 290.528 -153.191 290.056 -153.804 289.57 C -161.87 283.111 -168.904 276.406 -175 268 C -175.402 267.45 -175.803 266.9 -176.217 266.333 C -185.077 254.071 -198 234.717 -198 219 C -183.301 211.849 -168.581 204.75 -153.75 197.875 C -152.032 197.078 -152.032 197.078 -150.278 196.265 C -144.208 193.459 -138.122 190.692 -132 188 C -131.564 188.955 -131.129 189.91 -130.68 190.895 C -119.721 214.773 -106.363 236.393 -81.3086 247.156 C -72.1559 250.33 -62.9396 250.173 -54.125 246.133 C -48.8608 243.327 -46.1899 240.584 -44 235 C -41.5303 226.18 -44.8592 217.571 -49.1875 209.875 C -55.0894 200.372 -62.495 192.245 -70 184 C -72.3557 181.353 -74.6796 178.678 -77 176 C -77.4318 175.505 -77.8637 175.01 -78.3086 174.5 C -104.995 143.9 -125.475 112.062 -123 70 C -120.682 48.6124 -108.239 28.6947 -92 15 C -65.5233 -4.22058 -31.2306 -9.72696 0 0 Z" fill="#1A3561" transform="matrix(1,0,0,1,2254,109)"/><path d=" M 0 0 C 1.54297 2.50244 1.54297 2.50244 3.1875 5.85156 C 3.48653 6.45396 3.78555 7.05635 4.09364 7.677 C 5.07226 9.65499 6.03622 11.6397 7 13.625 C 7.673 14.993 8.34675 16.3607 9.02124 17.728 C 13.9913 27.8281 18.8645 37.9758 23.6758 48.1523 C 26.0302 53.1118 28.5417 57.9735 31.1719 62.793 C 32.1667 65.4443 32.0278 66.3927 31 69 C 29.3579 70.2263 29.3579 70.2263 27.1909 71.2639 C 26.3745 71.6634 25.5581 72.063 24.7169 72.4746 C 23.8178 72.8968 22.9186 73.3189 21.9922 73.7539 C 21.0554 74.2076 20.1186 74.6612 19.1534 75.1287 C 16.0668 76.6198 12.971 78.0909 9.875 79.5625 C 7.74247 80.589 5.61064 81.6169 3.47949 82.6462 C -0.878541 84.749 -5.23996 86.8444 -9.60449 88.9336 C -18.1747 93.0381 -26.721 97.1913 -35.2636 101.353 C -37.6898 102.533 -40.1183 103.709 -42.5474 104.883 C -50.4795 108.727 -58.3201 112.665 -66 117 C -65.4495 118.1 -64.899 119.2 -64.3318 120.333 C -62.294 124.412 -60.272 128.499 -58.2546 132.588 C -57.379 134.358 -56.4992 136.125 -55.615 137.89 C -54.3454 140.427 -53.0912 142.97 -51.8398 145.516 C -51.2415 146.699 -51.2415 146.699 -50.6311 147.906 C -50.2706 148.646 -49.9102 149.387 -49.5388 150.149 C -49.2168 150.798 -48.8948 151.446 -48.5631 152.114 C -47.8626 154.46 -48.132 155.733 -49 158 C -50.7012 159.21 -50.7012 159.21 -52.9688 160.234 C -53.8347 160.636 -54.7006 161.038 -55.5928 161.452 C -56.5522 161.88 -57.5115 162.309 -58.5 162.75 C -60.5791 163.706 -62.6572 164.665 -64.7344 165.625 C -66.4543 166.416 -66.4543 166.416 -68.209 167.223 C -72.4285 169.184 -76.5965 171.247 -80.7656 173.312 C -82.2675 174.054 -83.7695 174.795 -85.2715 175.536 C -87.5099 176.641 -89.7469 177.748 -91.9797 178.865 C -94.0811 179.914 -96.1882 180.95 -98.2969 181.984 C -98.9303 182.305 -99.5637 182.625 -100.216 182.955 C -104.659 185.114 -104.659 185.114 -108 184 C -109.044 182.475 -109.044 182.475 -109.993 180.49 C -110.533 179.379 -110.533 179.379 -111.084 178.245 C -111.652 177.039 -111.652 177.039 -112.23 175.809 C -112.626 174.989 -113.021 174.169 -113.428 173.324 C -114.691 170.7 -115.939 168.069 -117.188 165.438 C -118.04 163.659 -118.894 161.881 -119.748 160.104 C -121.843 155.741 -123.925 151.372 -126 147 C -129.302 147 -130.663 147.638 -133.587 149.085 C -134.523 149.545 -135.46 150.005 -136.425 150.479 C -137.445 150.987 -138.465 151.496 -139.516 152.02 C -140.582 152.545 -141.648 153.07 -142.746 153.612 C -145.646 155.042 -148.544 156.478 -151.441 157.916 C -154.471 159.418 -157.505 160.913 -160.538 162.409 C -164.212 164.221 -167.887 166.033 -171.56 167.848 C -181.772 172.894 -192.005 177.895 -202.25 182.875 C -204.594 184.015 -206.938 185.156 -209.282 186.297 C -210.834 187.052 -212.385 187.807 -213.937 188.562 C -222.225 192.595 -230.509 196.636 -238.793 200.678 C -241.365 201.933 -243.937 203.187 -246.509 204.442 C -256.064 209.103 -265.618 213.766 -275.171 218.43 C -279.481 220.533 -283.792 222.636 -288.104 224.737 C -289.353 225.346 -289.353 225.346 -290.628 225.967 C -292.291 226.777 -293.954 227.588 -295.617 228.398 C -300.548 230.801 -305.474 233.213 -310.398 235.631 C -313.493 237.15 -316.591 238.665 -319.689 240.18 C -321.133 240.887 -322.577 241.596 -324.019 242.308 C -325.987 243.278 -327.958 244.242 -329.93 245.203 C -331.036 245.746 -332.141 246.289 -333.281 246.849 C -336 248 -336 248 -339 248 C -339.259 247.457 -339.518 246.915 -339.784 246.356 C -341.104 243.59 -342.427 240.827 -343.75 238.062 C -344.261 236.991 -344.773 235.92 -345.3 234.816 C -348.454 228.23 -351.651 221.669 -354.903 215.131 C -356.75 211.416 -358.589 207.696 -360.429 203.977 C -361.352 202.116 -362.279 200.258 -363.211 198.402 C -364.533 195.767 -365.84 193.124 -367.145 190.48 C -367.549 189.684 -367.954 188.887 -368.371 188.065 C -368.733 187.325 -369.095 186.584 -369.468 185.821 C -369.789 185.177 -370.111 184.533 -370.442 183.869 C -371.163 181.453 -371.038 180.299 -370 178 C -368.168 176.729 -368.168 176.729 -365.741 175.629 C -364.835 175.209 -363.928 174.788 -362.994 174.354 C -362.001 173.91 -361.008 173.466 -359.984 173.008 C -357.865 172.028 -355.745 171.046 -353.627 170.063 C -352.528 169.558 -351.43 169.053 -350.298 168.533 C -345.103 166.118 -339.966 163.588 -334.828 161.055 C -332.761 160.039 -330.693 159.024 -328.625 158.009 C -327.585 157.498 -326.545 156.986 -325.473 156.459 C -319.882 153.711 -314.289 150.967 -308.695 148.223 C -307.592 147.681 -306.489 147.14 -305.352 146.582 C -296.287 142.137 -287.21 137.716 -278.125 133.312 C -264.987 126.943 -251.865 120.541 -238.75 114.125 C -209.522 99.8295 -209.522 99.8295 -197.125 93.7824 C -195.491 92.9852 -193.858 92.1876 -192.224 91.3895 C -184.344 87.5391 -176.454 83.7098 -168.523 79.9648 C -167.892 79.6638 -167.261 79.3628 -166.611 79.0526 C -162.233 77 -162.233 77 -160 77 C -160.772 75.4708 -160.772 75.4708 -161.561 73.9106 C -163.465 70.137 -165.365 66.3606 -167.263 62.5835 C -168.086 60.9474 -168.911 59.3119 -169.737 57.6772 C -170.922 55.331 -172.102 52.9822 -173.281 50.6328 C -173.653 49.8994 -174.025 49.166 -174.408 48.4104 C -177 43.2277 -177 43.2277 -177 41 C -171.473 38.2966 -165.945 35.5948 -160.417 32.8945 C -158.544 31.9796 -156.672 31.0643 -154.8 30.1484 C -149.403 27.5088 -144.002 24.879 -138.595 22.2607 C -136.047 21.023 -133.506 19.7736 -130.964 18.5234 C -129.423 17.7754 -127.882 17.028 -126.34 16.2812 C -125.637 15.9318 -124.935 15.5823 -124.211 15.2223 C -119.342 12.8861 -119.342 12.8861 -116 14 C -114.713 16.0979 -114.713 16.0979 -113.441 18.8477 C -112.973 19.846 -112.504 20.8444 -112.021 21.873 C -111.54 22.9256 -111.059 23.9781 -110.562 25.0625 C -109.606 27.1161 -108.649 29.1695 -107.691 31.2227 C -107.237 32.2077 -106.782 33.1927 -106.313 34.2075 C -105.138 36.7055 -103.913 39.1656 -102.652 41.6211 C -101 45 -101 45 -101 47 C -100.439 46.7245 -99.8776 46.4491 -99.2994 46.1653 C -92.0959 42.63 -84.8919 39.0959 -77.6875 35.5625 C -76.5324 34.996 -75.3773 34.4295 -74.1872 33.8458 C -58.1134 25.9637 -42.0293 18.1036 -25.9148 10.3049 C -24.9376 9.83144 -24.9376 9.83144 -23.9406 9.34837 C -22.1071 8.46064 -20.2726 7.57524 -18.438 6.68994 C -16.1152 5.54817 -13.8063 4.37768 -11.5112 3.18115 C -10.4337 2.61993 -9.35624 2.0587 -8.24609 1.48047 C -7.30306 0.977976 -6.36003 0.475483 -5.38843 -0.0422363 C -3 -1 -3 -1 0 0 Z" fill="#1A3561" transform="matrix(1,0,0,1,486,2275)"/><path d=" M 0 0 C 5.22327 1.57047 9.94517 3.80874 14.8164 6.21875 C 16.0853 6.84053 16.0853 6.84053 17.3799 7.47487 C 20.1092 8.813 22.8359 10.1563 25.5625 11.5 C 29.2713 13.3234 32.9811 15.1446 36.6914 16.9648 C 38.0449 17.6293 38.0449 17.6293 39.4257 18.3072 C 44.3762 20.7326 49.3402 23.1189 54.3398 25.4414 C 55.3272 25.9003 56.3145 26.3592 57.3318 26.832 C 59.059 27.6286 60.7901 28.4169 62.5256 29.1953 C 64.387 30.055 66.2011 31.0162 68 32 C 69.2588 35.7765 68.208 37.1964 66.5228 40.6478 C 66.1402 41.406 65.7575 42.1641 65.3633 42.9453 C 64.7776 44.1353 64.7776 44.1353 64.1801 45.3493 C 62.8998 47.9457 61.6061 50.5352 60.3125 53.125 C 59.4249 54.9202 58.5385 56.7159 57.6531 58.5122 C 55.8986 62.0705 54.1402 65.6268 52.3789 69.1816 C 49.4731 75.0556 46.6326 80.9594 43.8125 86.875 C 38.9927 96.9542 34.1266 107.011 29.25 117.062 C 28.8869 117.811 28.5237 118.56 28.1496 119.331 C 26.1004 123.554 24.0505 127.777 22 132 C 24.768 133.485 27.5386 134.964 30.3125 136.438 C 31.5788 137.111 31.5788 137.111 32.8706 137.797 C 39.8399 141.466 46.9181 144.851 54.1184 148.043 C 54.876 148.388 55.6335 148.734 56.4141 149.09 C 57.0839 149.388 57.7537 149.685 58.4438 149.992 C 60 151 60 151 61 154 C 60.0963 156.307 59.1335 158.43 58.0195 160.633 C 57.6951 161.294 57.3706 161.956 57.0363 162.637 C 55.9707 164.804 54.8916 166.964 53.8125 169.125 C 53.079 170.611 52.3466 172.098 51.6152 173.586 C 50.1321 176.601 48.6447 179.614 47.1548 182.625 C 44.0505 188.913 41.0239 195.236 38 201.562 C 37.0209 203.606 36.0418 205.648 35.0625 207.691 C 34.3749 209.128 33.6874 210.564 33 212 C 22.533 207.606 12.362 202.773 2.27686 197.557 C 1.37467 197.096 0.47249 196.635 -0.457031 196.16 C -1.26116 195.744 -2.0653 195.328 -2.8938 194.899 C -5.07823 193.804 -5.07823 193.804 -8 194 C -17.2946 213.053 -26.586 232.107 -35.7896 251.204 C -40.3411 260.645 -44.9176 270.074 -49.5 279.5 C -54.6817 290.159 -59.8522 300.824 -65 311.5 C -70.817 323.563 -76.6621 335.612 -82.5166 347.656 C -86.1692 355.171 -89.819 362.687 -93.4609 370.207 C -93.8235 370.955 -94.186 371.704 -94.5595 372.475 C -96.6592 376.81 -96.6592 376.81 -98.7575 381.145 C -102.456 388.788 -106.175 396.419 -110 404 C -114.098 402.709 -117.909 401.185 -121.77 399.305 C -123.451 398.489 -123.451 398.489 -125.167 397.657 C -126.382 397.064 -127.597 396.469 -128.812 395.875 C -130.729 394.94 -132.646 394.007 -134.564 393.073 C -135.912 392.416 -137.26 391.759 -138.608 391.102 C -143.024 388.95 -147.453 386.827 -151.893 384.722 C -154.939 383.277 -157.983 381.825 -161.025 380.371 C -162.507 379.666 -163.99 378.965 -165.475 378.266 C -167.555 377.287 -169.63 376.295 -171.703 375.301 C -173.492 374.453 -173.492 374.453 -175.317 373.587 C -178 372 -178 372 -179 369 C -178.328 367.023 -178.328 367.023 -177.193 364.742 C -176.559 363.45 -176.559 363.45 -175.913 362.133 C -175.443 361.199 -174.973 360.266 -174.488 359.305 C -174.009 358.334 -173.53 357.363 -173.036 356.362 C -171.47 353.195 -169.891 350.035 -168.312 346.875 C -167.233 344.696 -166.154 342.516 -165.077 340.336 C -162.974 336.081 -160.868 331.829 -158.758 327.577 C -155.703 321.41 -152.706 315.216 -149.75 309 C -144.726 298.471 -139.616 287.985 -134.5 277.5 C -129.303 266.848 -124.112 256.193 -119 245.5 C -113.48 233.953 -107.868 222.452 -102.256 210.95 C -96.6805 199.523 -91.1314 188.084 -85.6523 176.609 C -85.2218 175.708 -84.7913 174.807 -84.3477 173.879 C -83.9521 173.05 -83.5565 172.221 -83.1489 171.368 C -82.0243 169.05 -80.8583 166.757 -79.6836 164.465 C -77.8543 161.342 -77.8543 161.342 -78 159 C -81.4358 157.267 -84.8739 155.54 -88.3125 153.812 C -89.2696 153.33 -90.2268 152.847 -91.2129 152.35 C -97.7409 149.075 -104.329 145.973 -111 143 C -110.414 139.504 -109.511 136.636 -107.946 133.46 C -107.522 132.592 -107.098 131.724 -106.661 130.829 C -105.97 129.438 -105.97 129.438 -105.266 128.02 C -104.791 127.051 -104.316 126.083 -103.826 125.086 C -102.306 121.992 -100.778 118.902 -99.25 115.812 C -98.2365 113.752 -97.2234 111.692 -96.2109 109.631 C -91.8379 100.738 -87.4394 91.8594 -83 83 C -75.4278 85.2701 -68.6456 88.5161 -61.625 92.125 C -59.493 93.2126 -57.3603 94.2986 -55.2266 95.3828 C -54.2941 95.8612 -53.3616 96.3396 -52.4009 96.8325 C -49.9481 98.0898 -49.9481 98.0898 -47 99 C -46.4586 97.1786 -46.4586 97.1786 -45.9062 95.3203 C -43.7485 88.8596 -40.5995 82.9247 -37.5 76.875 C -36.2218 74.3546 -34.9487 71.8317 -33.6758 69.3086 C -33.3586 68.681 -33.0414 68.0534 -32.7146 67.4068 C -29.9627 61.9525 -27.3052 56.4572 -24.6875 50.9375 C -19.8275 40.7014 -14.8909 30.5036 -9.9375 20.3125 C -9.55766 19.5307 -9.17782 18.7488 -8.78647 17.9433 C -7.70045 15.7081 -6.61402 13.4732 -5.52734 11.2383 C -5.20075 10.5664 -4.87415 9.89449 -4.53766 9.20224 C -3.04113 6.12665 -1.5387 3.05474 0 0 Z" fill="#1A3561" transform="matrix(1,0,0,1,1004,2828)"/><path d=" M 0 0 C 39.4443 0.742882 78.8715 2.10753 118.301 3.3943 C 128.437 3.72504 138.574 4.05367 148.711 4.38227 C 166.809 4.96904 184.908 5.5577 203.007 6.14746 C 220.494 6.71732 237.982 7.28571 255.47 7.85254 C 277.694 8.57285 299.917 9.29443 322.14 10.0171 C 329.178 10.2459 336.216 10.4743 343.254 10.7025 C 351.836 10.9808 360.417 11.2599 368.998 11.54 C 373.362 11.6825 377.725 11.8246 382.089 11.9657 C 400.397 12.5582 418.7 13.1889 437 14 C 437.01 15.4505 437.021 16.901 437.031 18.3515 C 437.036 19.1592 437.042 19.967 437.048 20.7992 C 437.143 36.0043 436.562 51.1828 436 66.375 C 435.903 69.069 435.807 71.763 435.711 74.457 C 435.478 80.9715 435.24 87.4858 435 94 C 415.188 94.2245 395.417 93.5691 375.619 92.9156 C 370.742 92.7554 365.864 92.5996 360.986 92.4431 C 351.464 92.1371 341.942 91.8271 332.421 91.5157 C 324.68 91.2626 316.94 91.0111 309.199 90.7606 C 308.093 90.7248 306.987 90.689 305.847 90.6521 C 303.6 90.5794 301.352 90.5067 299.105 90.434 C 279.288 89.7927 259.47 89.1477 239.653 88.5007 C 220.45 87.8738 201.247 87.2501 182.043 86.6296 C 161.085 85.9525 140.128 85.2736 119.17 84.5915 C 116.934 84.5188 114.699 84.446 112.463 84.3732 C 111.363 84.3374 110.263 84.3017 109.13 84.2648 C 101.398 84.0133 93.6668 83.763 85.9351 83.5133 C 76.5142 83.2089 67.0934 82.9024 57.6726 82.5933 C 52.871 82.4358 48.0694 82.2792 43.2677 82.1251 C 38.8663 81.9838 34.465 81.8398 30.0638 81.6938 C 28.4781 81.6416 26.8925 81.5904 25.3068 81.5403 C 16.1828 81.2513 7.09574 80.7939 -2 80 C -2.14685 61.9531 -1.71338 43.9694 -1 25.9375 C -0.903213 23.4017 -0.806857 20.8659 -0.710938 18.3301 C -0.479685 12.2198 -0.240487 6.1099 0 0 Z" fill="#1A3561" transform="matrix(1,0,0,1,2956,1638)"/><path d=" M 0 0 C 17.1566 5.14455 34.2939 10.3523 51.3874 15.703 C 53.0871 16.2342 54.7875 16.7633 56.4886 17.2902 C 58.8785 18.0311 61.2657 18.7801 63.6523 19.5312 C 64.3686 19.7517 65.0848 19.9721 65.8227 20.1993 C 70.7714 21.7714 70.7714 21.7714 73 24 C 72.7939 24.6472 72.5877 25.2943 72.3753 25.9611 C 69.6642 34.4732 66.9561 42.9863 64.25 51.5 C 63.9145 52.5555 63.9145 52.5555 63.5722 53.6323 C 56.693 75.2769 49.8797 96.9412 43.125 118.625 C 35.9469 141.668 28.6605 164.674 21.3088 187.661 C 13.3351 212.595 5.47302 237.561 -2.30469 262.557 C -7.1309 278.061 -12.0223 293.543 -17 309 C -21.3183 310.24 -24.016 309.676 -28.2556 308.309 C -29.4972 307.915 -30.7387 307.521 -32.0179 307.115 C -33.3649 306.675 -34.7118 306.234 -36.0586 305.793 C -37.4492 305.347 -38.8402 304.902 -40.2315 304.458 C -43.8904 303.287 -47.5446 302.102 -51.198 300.914 C -54.9033 299.712 -58.613 298.524 -62.3223 297.334 C -81.6487 291.128 -81.6487 291.128 -91 288 C -88.9275 279.188 -86.3817 270.595 -83.5977 261.984 C -83.1635 260.631 -82.7298 259.278 -82.2965 257.925 C -81.3719 255.04 -80.4452 252.155 -79.5168 249.271 C -77.013 241.491 -74.5244 233.706 -72.0352 225.922 C -71.7808 225.127 -71.5264 224.332 -71.2643 223.512 C -66.3074 208.014 -61.4413 192.488 -56.607 176.951 C -49.0502 152.665 -41.3745 128.42 -33.6226 104.196 C -28.4628 88.0702 -23.3372 71.9352 -18.3047 55.7695 C -18.0738 55.0281 -17.8428 54.2867 -17.6049 53.5229 C -15.384 46.3918 -13.1666 39.2597 -10.9618 32.1236 C -10.3553 30.1623 -9.74697 28.2015 -9.13797 26.2409 C -8.40225 23.8714 -7.66962 21.501 -6.94089 19.1293 C -4.91537 12.619 -2.64422 6.28531 0 0 Z" fill="#1A3561" transform="matrix(1,0,0,1,1129,3002)"/><path d=" M 0 0 C 0.636797 0.500156 1.27359 1.00031 1.92969 1.51562 C 9.54883 8.22047 15.1181 20.0954 16.2332 30.0898 C 17.1611 45.0424 14.9524 58.4357 5.34766 70.5 C -4.31269 80.7872 -15.8794 86.9181 -30.0454 87.5872 C -42.844 87.7845 -54.3397 84.8185 -64 76 C -64.9958 75.1744 -64.9958 75.1744 -66.0117 74.332 C -75.1598 66.1598 -80.3638 54.0957 -81.2109 41.9844 C -81.6336 28.2626 -77.8362 15.0844 -69.25 4.1875 C -50.5952 -15.6242 -20.7739 -16.9376 0 0 Z" fill="#1A3561" transform="matrix(1,0,0,1,1220,2905)"/><path d=" M 0 0 C 0.66 0 1.32 0 2 0 C 3.5813 2.32886 3.5813 2.32886 5.45703 5.60547 C 5.79599 6.19178 6.13495 6.77809 6.48418 7.38217 C 7.21636 8.64989 7.9453 9.91948 8.67139 11.1907 C 10.5944 14.5557 12.5424 17.9061 14.4883 21.2578 C 14.877 21.9286 15.2657 22.5994 15.6662 23.2905 C 18.8503 28.7738 22.1375 34.1866 25.5 39.5625 C 30.4743 47.528 35.3822 55.5316 40.25 63.5625 C 40.6027 64.1442 40.9555 64.7259 41.3189 65.3252 C 43.1281 68.3089 44.9366 71.2929 46.7446 74.2773 C 50.262 80.0834 53.7816 85.8881 57.3029 91.6919 C 58.417 93.5287 59.5303 95.366 60.6436 97.2034 C 61.3168 98.3132 61.99 99.423 62.6836 100.566 C 63.5739 102.035 63.5739 102.035 64.4822 103.533 C 65.6178 105.379 66.798 107.197 68 109 C 68 110.32 68 111.64 68 113 C 49.2506 113.195 30.5147 112.679 11.7732 112.2 C 7.17463 112.083 2.57594 111.973 -2.02283 111.864 C -5.58383 111.779 -9.14471 111.69 -12.7056 111.599 C -14.4037 111.557 -16.1018 111.516 -17.7999 111.476 C -20.1515 111.421 -22.5029 111.36 -24.8542 111.297 C -25.902 111.274 -25.902 111.274 -26.971 111.251 C -31.7716 111.114 -31.7716 111.114 -34 110 C -36.1037 109.846 -38.212 109.75 -40.3203 109.684 C -41.5771 109.642 -42.834 109.6 -44.1289 109.557 C -45.4476 109.517 -46.7663 109.478 -48.125 109.438 C -49.4649 109.394 -50.8047 109.351 -52.1445 109.307 C -55.4296 109.2 -58.7147 109.098 -62 109 C -60.767 104.982 -59.3106 101.513 -57.1641 97.9023 C -56.6007 96.9472 -56.0374 95.992 -55.457 95.0078 C -54.8525 93.9946 -54.2479 92.9814 -53.625 91.9375 C -52.3455 89.77 -51.0669 87.602 -49.7891 85.4336 C -49.1487 84.3493 -48.5084 83.2651 -47.8486 82.1479 C -45.1908 77.6221 -42.5921 73.0637 -40 68.5 C -35.2318 60.1219 -30.3853 51.7918 -25.5142 43.4731 C -22.2106 37.8209 -18.9359 32.1534 -15.6953 26.4648 C -15.3345 25.8316 -14.9737 25.1985 -14.6019 24.5461 C -12.8408 21.4538 -11.0829 18.3598 -9.3291 15.2634 C -8.69198 14.1427 -8.05486 13.0219 -7.39844 11.8672 C -6.55805 10.3839 -6.55805 10.3839 -5.70068 8.87061 C -3.8973 5.82665 -2.07994 2.86371 0 0 Z" fill="#050300" transform="matrix(1,0,0,1,2967,2376)"/></svg>