<svg width="20" height="20" viewBox="0 0 20 20" fill="none" xmlns="http://www.w3.org/2000/svg">
<path d="M4.43242 12.0862L3.73625 14.6851L1.19176 14.739C0.431328 13.3285 0 11.7148 0 9.99997C0 8.34173 0.403281 6.77798 1.11813 5.40106H1.11867L3.38399 5.81637L4.37633 8.06809C4.16863 8.6736 4.05543 9.3236 4.05543 9.99997C4.05551 10.734 4.18848 11.4374 4.43242 12.0862Z" fill="#FBBB00"/>
<path d="M19.8253 8.13184C19.9401 8.73676 20 9.36148 20 9.99996C20 10.7159 19.9247 11.4143 19.7813 12.0879C19.2945 14.3802 18.0225 16.3818 16.2605 17.7983L16.2599 17.7978L13.4066 17.6522L13.0028 15.1313C14.172 14.4456 15.0858 13.3725 15.5671 12.0879H10.2198V8.13184H15.6451H19.8253Z" fill="#518EF8"/>
<path d="M16.2599 17.7978L16.2604 17.7984C14.5467 19.1758 12.3698 20 10 20C6.19177 20 2.8808 17.8715 1.19177 14.739L4.43244 12.0863C5.27693 14.3401 7.45111 15.9445 10 15.9445C11.0956 15.9445 12.122 15.6484 13.0028 15.1313L16.2599 17.7978Z" fill="#28B446"/>
<path d="M16.383 2.30219L13.1434 4.95438C12.2319 4.38461 11.1544 4.05547 9.99998 4.05547C7.39338 4.05547 5.17853 5.73348 4.37635 8.06813L1.11865 5.4011H1.1181C2.7824 2.19231 6.13514 0 9.99998 0C12.4263 0 14.6511 0.864297 16.383 2.30219Z" fill="#F14336"/>
</svg>
